<svg height="512pt" viewBox="0 0 512 512" width="512pt" xmlns="http://www.w3.org/2000/svg"><path d="m231.257812 261h-107.414062c-6.988281-6.988281-10.90625-10.90625-17.894531-17.894531v-62.21875c10.144531-10.144531 15.832031-15.832031 25.976562-25.976563h91.253907c10.140624 10.144532 15.828124 15.828125 25.972656 25.976563v62.21875c-6.988282 6.988281-10.90625 10.90625-17.894532 17.894531zm0 0" fill="#fff5cc"/><path d="m289.523438 83.371094 30.210937-30.214844c0-9.027344 0-14.089844 0-23.117188l-22.539063-22.539062c-9.03125 0-14.089843 0-23.121093 0l-30.210938 30.210938zm0 0" fill="#fff5cc"/><path d="m65.582031 83.371094 45.65625-45.660156-30.210937-30.210938c-9.03125 0-14.089844 0-23.121094 0l-22.539062 22.539062v23.117188zm0 0" fill="#fff5cc"/><path d="m341.464844 423.492188v-147.050782l-33.570313-36.445312h-58.742187v3.109375l-17.894532 17.894531h-107.414062l-17.894531-17.894531v-3.109375h-64.878907c-13.109374 13.109375-20.460937 20.460937-33.570312 33.570312v230.933594h279.960938v-27.003906h101.539062v-54.003906zm0 0" fill="#ffb655"/><path d="m289.523438 301.78125h26.546874v175.714844h-26.546874zm0 0" fill="#ff7956"/><path d="m273.09375 504.5h-137.230469v-133.890625c0-37.894531 30.71875-68.617187 68.617188-68.617187 37.894531 0 68.613281 30.722656 68.613281 68.617187zm0 0" fill="#ff7956"/><path d="m177.53125 196.355469-29.304688-29.304688c16.183594-16.1875 42.425782-16.1875 58.613282 0zm0 0" fill="#f072ae"/><path d="m243.863281 37.710938h-132.625l-45.65625 45.660156v114.585937l40.367188 40.367188v-57.441407c10.144531-10.144531 15.832031-15.828124 25.976562-25.976562h91.253907c10.140624 10.144531 15.828124 15.832031 25.972656 25.976562v57.441407l40.371094-40.367188v-114.585937zm0 0" fill="#ffb655"/><path d="m243.09375 504.5h-137.230469v-133.890625c0-37.894531 30.71875-68.617187 68.617188-68.617187 37.894531 0 68.613281 30.722656 68.613281 68.617187zm0 0" fill="#fff5cc"/><path d="m389 423.492188v54.003906h42.960938c8.589843-8.589844 13.40625-13.40625 22-22v-32.003906zm0 0" fill="#fff5cc"/><path d="m504.5 105.28125c0-54.003906-36.136719-97.78125-80.714844-97.78125s-80.714844 43.777344-80.714844 97.78125 36.136719 97.785156 80.714844 97.785156 80.714844-43.78125 80.714844-97.785156zm0 0" fill="#44ffe8"/><path d="m135.949219 180.886719 25.976562-25.976563h-30c-10.144531 10.144532-15.832031 15.832032-25.976562 25.976563v62.21875l17.894531 17.894531h30l-17.894531-17.894531zm0 0" fill="#ffc477"/><path d="m273.863281 37.710938 26.773438-26.769532-3.441407-3.441406h-23.121093l-30.210938 30.210938 45.660157 45.660156 15-15zm0 0" fill="#ffc477"/><path d="m65.367188 53.15625v-23.117188l19.101562-19.097656-3.441406-3.441406h-23.121094l-22.539062 22.539062v23.117188l30.214843 30.214844 15-15zm0 0" fill="#ffc477"/><path d="m279.152344 243.105469v-3.109375h-30v3.109375l-17.894532 17.894531h30zm0 0" fill="#ff7956"/><path d="m71.070312 239.996094h-30c-13.109374 13.109375-20.460937 20.460937-33.570312 33.570312v230.933594h30v-230.933594c13.109375-13.109375 20.460938-20.460937 33.570312-33.570312zm0 0" fill="#ff7956"/><path d="m168.226562 167.050781c5.53125-5.53125 12.234376-9.171875 19.304688-10.921875-13.632812-3.375-28.648438.265625-39.304688 10.921875l29.304688 29.304688 10-10zm0 0" fill="#ff3f62"/><path d="m95.582031 197.957031v-114.585937l45.65625-45.660156h-30l-45.65625 45.660156v114.585937l40.367188 40.367188v-30zm0 0" fill="#ff7956"/><path d="m279.152344 208.324219v-27.4375c-10.144532-10.144531-15.832032-15.832031-25.976563-25.976563h-30c10.144531 10.144532 15.832031 15.832032 25.976563 25.976563v57.4375zm0 0" fill="#ff7956"/><path d="m189.480469 303.636719c-4.828125-1.074219-9.847657-1.644531-15-1.644531-37.898438 0-68.617188 30.722656-68.617188 68.617187v133.890625h30v-133.890625c0-32.742187 22.933594-60.128906 53.617188-66.972656zm0 0" fill="#ffc477"/><path d="m389 423.492188h30v54.003906h-30zm0 0" fill="#ffc477"/><path d="m373.070312 105.28125c0-47.792969 28.304688-87.578125 65.714844-96.09375-4.859375-1.109375-9.875-1.6875-15-1.6875-44.578125 0-80.714844 43.777344-80.714844 97.78125s36.136719 97.785156 80.714844 97.785156c5.125 0 10.140625-.578125 15-1.6875-37.410156-8.515625-65.714844-48.300781-65.714844-96.097656zm0 0" fill="#5aaae7"/><path d="m279.960938 497h-29.367188v-126.390625c0-41.972656-34.144531-76.117187-76.113281-76.117187-41.972657 0-76.117188 34.148437-76.117188 76.117187v126.390625h-29.359375v-195.007812h-15v195.007812h-39.003906v-220.328125l29.175781-29.175781h35.160157v-15h-41.375l-37.960938 37.964844v241.539062h294.960938v-210.007812h-15zm-166.597657 0v-126.390625c0-33.699219 27.417969-61.117187 61.117188-61.117187s61.113281 27.417968 61.113281 61.117187v126.390625zm0 0"/><path d="m58.082031 201.0625 40.367188 40.371094v4.777344l22.289062 22.289062h113.625l22.289063-22.289062v-4.777344l40.371094-40.371094v-114.585938l30.210937-30.210937v-29.332031l-26.933594-26.933594h-29.332031l-30.210938 30.210938h-126.414062l-30.210938-30.210938h-29.332031l-26.933593 26.933594v29.332031l30.210937 30.210937v114.585938zm170.070313 52.4375h-101.203125l-13.5-13.5v-56.007812l21.582031-21.582032h7.230469l-4.640625 4.640625 32.414062 32.410157v32.253906c-16.34375-3.464844-28.644531-18-28.644531-35.359375h-15c0 28.199219 22.945313 51.140625 51.144531 51.140625 28.199219 0 51.140625-22.941406 51.140625-51.140625h-15c0 17.359375-12.300781 31.894531-28.640625 35.359375v-32.253906l32.410156-32.410157-4.636718-4.640625h7.261718l21.582032 21.582032v56.007812zm-32.503906-85.867188-18.117188 18.117188-18.113281-18.117188c5.371093-3.402343 11.601562-5.222656 18.113281-5.222656 6.515625 0 12.746094 1.820313 18.117188 5.222656zm86.375 27.21875-25.371094 25.367188v-42.441406l-30.371094-30.367188h-97.464844l-30.367187 30.367188v42.441406l-25.367188-25.367188v-108.375l41.261719-41.265624h126.414062l41.265626 41.265624zm-4.839844-179.851562h16.90625l18.144531 18.144531v16.90625l-22.710937 22.710938-35.054688-35.050781zm-234.316406 18.144531 18.148437-18.144531h16.90625l22.710937 22.710938-35.050781 35.054687-22.714843-22.714844zm0 0"/><path d="m423.785156 0c-48.640625 0-88.214844 47.230469-88.214844 105.28125 0 55.039062 35.570313 100.351562 80.714844 104.90625l-.003906 193.304688h15l.003906-193.304688c45.144532-4.554688 80.714844-49.867188 80.714844-104.90625 0-58.050781-39.574219-105.28125-88.214844-105.28125zm0 195.566406c-40.371094 0-73.214844-40.5-73.214844-90.285156 0-49.78125 32.84375-90.28125 73.214844-90.28125s73.214844 40.5 73.214844 90.28125c0 49.785156-32.84375 90.285156-73.214844 90.285156zm0 0"/><path d="m348.964844 415.992188v-142.476563l-37.78125-41.019531h-35.417969v15h28.839844l29.359375 31.871094v151.625h47.535156v39.003906h-74.039062v15h108.820312v27.003906h15v-27.003906h3.785156l26.394532-26.390625v-42.613281zm97.496094 15v21.398437l-17.609376 17.605469h-32.351562v-39.003906zm0 0"/><g fill="#fff"><path d="m233.261719 70.210938h-61.175781v-15h61.175781zm-71.175781 0h-15v-15h15zm-25 0h-15v-15h15zm0 0"/><path d="m467.363281 163.285156-11.566406-9.546875c10.449219-12.660156 16.203125-29.867187 16.203125-48.457031 0-16.394531-4.605469-32.082031-12.96875-44.171875l12.335938-8.535156c10.226562 14.785156 15.632812 33.011719 15.632812 52.707031 0 22.066406-6.972656 42.664062-19.636719 58.003906zm-13.898437-109.113281c-3.09375-3.3125-6.453125-6.105469-9.984375-8.304687l7.921875-12.738282c4.652344 2.894532 9.035156 6.53125 13.027344 10.808594zm-17.550782-12.007813c-3.960937-1.4375-8.039062-2.164062-12.128906-2.164062v-15c5.839844 0 11.644532 1.03125 17.25 3.066406zm0 0"/><path d="m323.570312 421.085938h-15v-90.335938h15zm0-100.335938h-15v-15h15zm0-25h-15v-15h15zm0 0"/><path d="m225.59375 479.5h-15v-108.890625c0-5.179687-1.078125-10.179687-3.199219-14.863281l13.660157-6.195313c3.011718 6.640625 4.539062 13.726563 4.539062 21.058594zm-22.453125-130.835938c-2.539063-3.308593-5.597656-6.132812-9.09375-8.394531l8.15625-12.589843c4.933594 3.191406 9.25 7.179687 12.835937 11.847656zm-16.492187-12.0625c-3.894532-1.398437-7.988282-2.109374-12.167969-2.109374v-15c5.914062 0 11.714843 1.007812 17.242187 2.992187zm0 0"/></g></svg>