<svg id="Capa_1" enable-background="new 0 0 512.006 512.006" height="512" viewBox="0 0 512.006 512.006" width="512" xmlns="http://www.w3.org/2000/svg"><g><path d="m200.66 501.84 55.343-26.66 10-206.282-10-182.898h-33.003l-29 407z" fill="#22bfa2"/><path d="m311.346 501.84-55.349-26.66v-389.18h38.747l20 412.539z" fill="#28a085"/><path d="m14.813 442.12 40.35.5c12.837 18.38 33.837 46.38 33.837 46.38l5-6 62-388-5.007-9-90.99 30-59.71 308.19c-1.824 9.162 5.096 17.804 14.52 17.93z" fill="#22bfa2"/><path d="m223.03 86-22.37 415.84c-.1-.005-33.053 1.094-111.95-12.52l62.57-403.32z" fill="#28a085"/><path d="m497.193 442.12-40.35.5c-12.837 18.38-33.837 46.38-33.837 46.38l-5-6-62-388 5.007-9 90.99 30 59.71 308.19c1.824 9.162-5.097 17.804-14.52 17.93z" fill="#28a085"/><path d="m288.976 86 22.37 415.84s33.053 1.094 111.95-12.52l-62.57-403.32z" fill="#1b8772"/><path d="m60.123 65.39v50.29h195.88c1.953-1.953 3.047-3.047 5-5v-55.29c-1.953-1.953-3.047-3.047-5-5h-180.88c-8.284 0-15 6.716-15 15z" fill="#fde55f"/><path d="m451.877 65.39v50.29h-195.88v-65.29h180.88c8.29 0 15 6.72 15 15z" fill="#f7ba57"/><path d="m160.765 126.247-9.333-30.847 9.21-30.904c2.463-8.262-2.54-16.923-10.961-18.891l-31.404-7.339-22.16-23.43c-5.941-6.282-15.938-6.248-21.841.047l-22.057 23.527-31.347 7.477c-8.385 2-13.381 10.66-10.877 18.935l9.333 30.846-9.21 30.904c-2.463 8.262 2.54 16.923 10.961 18.891l31.404 7.339 22.16 23.431c5.941 6.282 15.938 6.248 21.841-.047l22.056-23.525 31.347-7.477c8.385-2.002 13.382-10.662 10.878-18.937z" fill="#e85b8e"/><path d="m149.89 145.18-31.35 7.48-22.06 23.52c-3.09 3.3-7.31 4.88-11.48 4.73v-170.76c4.04-.06 8.1 1.5 11.12 4.69l22.16 23.43 31.4 7.34c8.42 1.96 13.42 10.62 10.96 18.89l-9.21 30.9 9.33 30.85c2.51 8.27-2.49 16.93-10.87 18.93z" fill="#db1f79"/><circle cx="85.38" cy="95.534" fill="#fde55f" r="20"/><path d="m105.38 95.53c0 11.05-8.95 20-20 20-.13 0-.25 0-.38-.01v-39.98c.13-.01.25-.01.38-.01 11.05 0 20 8.96 20 20z" fill="#f7ba57"/></g></svg>