<svg id="Capa_1" enable-background="new 0 0 497 497" height="512" viewBox="0 0 497 497" width="512" xmlns="http://www.w3.org/2000/svg"><g><g><path d="m480.717 430.733h-50.267c-4.418 0-8-3.582-8-8v-28.133h66.267v28.133c0 4.419-3.582 8-8 8z" fill="#60b7ff"/><path d="m464.818 394.6v28.133c0 4.418-3.582 8-8 8h23.899c4.418 0 8-3.582 8-8v-28.133z" fill="#26a6fe"/></g><g><path d="m66.55 430.733h-50.267c-4.418 0-8-3.582-8-8v-28.133h66.267v28.133c0 4.419-3.582 8-8 8z" fill="#60b7ff"/><path d="m50.651 394.6v28.133c0 4.418-3.582 8-8 8h23.899c4.418 0 8-3.582 8-8v-28.133z" fill="#26a6fe"/></g><path d="m474.344 158.115-109.878-36.626h-231.933l-109.877 36.626c-13.53 4.51-22.656 17.171-22.656 31.433v199.769c0 4.575 3.709 8.283 8.283 8.283h66.267c4.575 0 8.283-3.708 8.283-8.283v-115.936c0-4.418 3.582-8 8-8h25.133 265.067 25.133c4.418 0 8 3.582 8 8v115.936c0 4.575 3.709 8.283 8.283 8.283h66.267c4.575 0 8.283-3.709 8.283-8.284v-199.768c.001-14.262-9.125-26.923-22.655-31.433z" fill="#90d8f9"/><g><path d="m396.529 139.446c-10.275 34.002-15.496 69.33-15.496 104.851v219.57l-132.533 16.566-132.533-16.567v-219.446c0-35.602-5.245-71.009-15.566-105.082l-2.086-6.443 34.218-11.406h231.933l34.085 11.362z" fill="#60b7ff"/><path d="m364.467 121.489h-23.017l34.085 11.362-2.022 6.596c-10.275 34.002-15.496 69.33-15.496 104.851v222.447l23.017-2.877v-219.57c0-35.521 5.221-70.849 15.496-104.851l2.022-6.596z" fill="#26a6fe"/><path d="m115.967 480.433c0 9.15 7.417 16.567 16.567 16.567h231.933c9.15 0 16.567-7.417 16.567-16.567v-16.567h-265.067z" fill="#90d8f9"/><path d="m358.033 463.867v16.567c0 9.15-7.417 16.567-16.567 16.567h23c9.15 0 16.567-7.417 16.567-16.567v-16.567z" fill="#60b7ff"/></g><path d="m341.254 330.675c-13.197-2.634-24.067-12.912-26.838-25.952-.81-3.811-4.19-6.524-8.086-6.524h-115.66c-3.896 0-7.276 2.713-8.086 6.524-2.771 13.039-13.641 23.317-26.838 25.952-3.866.772-6.646 4.169-6.646 8.112v75.379c0 9.15 7.417 16.567 16.567 16.567h165.667c9.149 0 16.567-7.417 16.567-16.567v-75.379c-.001-3.942-2.781-7.34-6.647-8.112z" fill="#90d8f9"/><g><path d="m364.467 121.489c-41.417 60.744-115.967 60.744-115.967 60.744s-74.55 0-115.967-60.744l20.691-51.783 95.276-47.334 100.974 55.25z" fill="#90d8f9"/><path d="m349.474 77.622-100.974-55.25-12.055 5.989 90.029 49.261 11.301 13.347c3.783 70.07-63.56 88.637-94.458 91.022 3.31.241 5.183.242 5.183.242s74.55 0 115.967-60.744z" fill="#60b7ff"/><path d="m314.767 77.995c-8.283 79.389-66.267 104.239-66.267 104.239s-57.983-24.85-66.267-104.239v-13.123l66.267-29 66.267 28.333z" fill="#365e7d"/><path d="m291.767 54.372v23.623c-5.938 56.914-37.418 85.795-54.767 97.588 6.851 4.657 11.5 6.651 11.5 6.651s57.983-24.85 66.267-104.239v-13.789z" fill="#2b4d66"/><path d="m132.533 121.489c16.567-30.372 51.92-55.222 115.967-55.222s99.4 24.85 115.967 55.222c0-67.097-51.92-121.489-115.967-121.489s-115.967 54.392-115.967 121.489z" fill="#60b7ff"/><path d="m248.5 0c-3.881 0-7.717.204-11.5.594 48.84 5.037 88.781 41.813 100.775 90.375 11.815 8.758 20.548 19.257 26.692 30.519 0-67.095-51.92-121.488-115.967-121.488z" fill="#26a6fe"/></g><g><path d="m182.233 222.867c-4.143 0-7.5-3.357-7.5-7.5v-66.267c0-4.143 3.357-7.5 7.5-7.5s7.5 3.357 7.5 7.5v66.267c0 4.142-3.357 7.5-7.5 7.5z" fill="#f9f6f6"/></g><g><path d="m314.766 222.867c-4.143 0-7.5-3.357-7.5-7.5v-66.267c0-4.143 3.357-7.5 7.5-7.5s7.5 3.357 7.5 7.5v66.267c0 4.142-3.357 7.5-7.5 7.5z" fill="#f9f6f6"/></g><path d="m149.1 390.1h198.8v15h-198.8z" fill="#26a6fe"/><g fill="#60b7ff"><path d="m406.662 224.538c-4.143 0-7.5 3.357-7.5 7.5v33.343h7.005c4.387 0 7.944 3.531 7.995 7.906v-41.248c0-4.143-3.358-7.501-7.5-7.501z"/><path d="m90.331 224.538c4.143 0 7.5 3.357 7.5 7.5v33.343h-7.005c-4.387 0-7.944 3.531-7.995 7.906v-41.248c0-4.143 3.357-7.501 7.5-7.501z"/><g><path d="m474.345 158.115-19.874-6.624c11.784 5.305 19.529 17.06 19.529 30.189v207.636c0 4.575-3.709 8.284-8.283 8.284h23c4.575 0 8.283-3.709 8.283-8.284v-199.768c0-14.262-9.126-26.923-22.655-31.433z"/><path d="m59.833 273.381v115.936c0 4.575-3.708 8.283-8.283 8.283h23c4.575 0 8.283-3.708 8.283-8.283v-115.936c0-4.418 3.582-8 8-8h-23c-4.418 0-8 3.582-8 8z"/></g></g><path d="m497 371.966v-15h-82.833v15z" fill="#26a6fe"/><path d="m0 356.966h82.833v15h-82.833z" fill="#26a6fe"/></g></svg>