<svg height="512" viewBox="0 0 512 512" width="512" xmlns="http://www.w3.org/2000/svg"><g id="flat"><path d="m416 440h56v48h-56z" fill="#bbbab6" transform="matrix(-1 0 0 -1 888 928)"/><path d="m444.339 99.516 25.23 162.759a166.078 166.078 0 0 1 3.674 19.672l9.446 75.567a165.986 165.986 0 0 1 -10.591 82.24l-.098.246h-56a96.757 96.757 0 0 1 -27.748-57.733l-4.252-38.267 1.778-56 6.222-8-5.713-8 3.387-106.666a157.393 157.393 0 0 1 34.326-91.172 38.9 38.9 0 0 1 20.339 25.354z" fill="#b22122"/><path d="m451.69 146.93a16 16 0 1 1 -3.86-24.89z" fill="#b22122"/><path d="m483.94 374.89-.06-.03-35.38-21.23-27.7 20.77a8.01 8.01 0 0 1 -9.6 0l-25.99-19.49-1.21-10.91.25-7.99a7.851 7.851 0 0 1 4.55 1.59l27.2 20.4 27.2-20.4a8.016 8.016 0 0 1 8.92-.46l30.3 18.18.27 2.19a163.4 163.4 0 0 1 1.25 17.38z" fill="#b22122"/><path d="m458.61 191.56a7.962 7.962 0 0 1 -1.62.38l-64 8a8.386 8.386 0 0 1 -1 .06 7.811 7.811 0 0 1 -3.4-.77l.47-14.67a8.333 8.333 0 0 1 1.95-.5l64-8a6.815 6.815 0 0 1 1.19-.05z" fill="#b22122"/><path d="m471.32 270.08-.13.03-85.41 17.69.53-16.44 81.64-16.92c.13-.03.26-.05.39-.07 0 0 2.46 13.09 2.98 15.71z" fill="#dcdbd6"/><path d="m437.319 380.424h21.363v21.363h-21.363z" fill="#bbbab6" transform="matrix(.707 -.707 .707 .707 -145.337 431.336)"/><path d="m451.69 146.93a16 16 0 1 1 -3.86-24.89z" fill="#bbbab6"/><path d="m458.61 191.56a7.962 7.962 0 0 1 -1.62.38l-64 8a8.386 8.386 0 0 1 -1 .06 7.811 7.811 0 0 1 -3.4-.77l.47-14.67a8.333 8.333 0 0 1 1.95-.5l64-8a6.815 6.815 0 0 1 1.19-.05z" fill="#bbbab6"/><path d="m483.94 374.89-.06-.03-35.38-21.23-27.7 20.77a8.01 8.01 0 0 1 -9.6 0l-25.99-19.49-1.21-10.91.25-7.99a7.851 7.851 0 0 1 4.55 1.59l27.2 20.4 27.2-20.4a8.016 8.016 0 0 1 8.92-.46l30.3 18.18.27 2.19a163.4 163.4 0 0 1 1.25 17.38z" fill="#bbbab6"/><path d="m40 440h56v48h-56z" fill="#bbbab6"/><path d="m67.661 99.516-25.23 162.759a166.078 166.078 0 0 0 -3.674 19.672l-9.446 75.567a165.986 165.986 0 0 0 10.589 82.24l.1.246h56a96.757 96.757 0 0 0 27.748-57.733l4.252-38.267-1.778-56-6.222-8 5.713-8-3.387-106.666a157.393 157.393 0 0 0 -34.326-91.172 38.9 38.9 0 0 0 -20.339 25.354z" fill="#b22122"/><path d="m88 136a16 16 0 0 1 -27.69 10.93l3.86-24.89a16.01 16.01 0 0 1 23.83 13.96z" fill="#b22122"/><path d="m128 344-1.21 10.91-25.99 19.49a8.01 8.01 0 0 1 -9.6 0l-27.7-20.77-35.38 21.23-.06.03a163.4 163.4 0 0 1 1.25-17.38l.27-2.19 30.3-18.18a8.016 8.016 0 0 1 8.92.46l27.2 20.4 27.2-20.4a7.875 7.875 0 0 1 4.55-1.59z" fill="#b22122"/><path d="m123.41 199.23a7.811 7.811 0 0 1 -3.4.77 8.386 8.386 0 0 1 -1-.06l-64-8a7.962 7.962 0 0 1 -1.62-.38l2.41-15.55a6.815 6.815 0 0 1 1.19.05l64 8a8.333 8.333 0 0 1 1.95.5z" fill="#b22122"/><path d="m126.22 287.8-85.41-17.69-.13-.03c.52-2.62 2.98-15.71 2.98-15.71.13.02.26.04.39.07l81.64 16.92z" fill="#dcdbd6"/><path d="m53.319 379.626h21.363v21.363h-21.363z" fill="#bbbab6" transform="matrix(.707 -.707 .707 .707 -257.244 159.573)"/><path d="m88 136a16 16 0 0 1 -27.69 10.93l3.86-24.89a16.01 16.01 0 0 1 23.83 13.96z" fill="#bbbab6"/><path d="m123.41 199.23a7.811 7.811 0 0 1 -3.4.77 8.386 8.386 0 0 1 -1-.06l-64-8a7.962 7.962 0 0 1 -1.62-.38l2.41-15.55a6.815 6.815 0 0 1 1.19.05l64 8a8.333 8.333 0 0 1 1.95.5z" fill="#bbbab6"/><path d="m128 344-1.21 10.91-25.99 19.49a8.01 8.01 0 0 1 -9.6 0l-27.7-20.77-35.38 21.23-.06.03a163.4 163.4 0 0 1 1.25-17.38l.27-2.19 30.3-18.18a8.016 8.016 0 0 1 8.92.46l27.2 20.4 27.2-20.4a7.875 7.875 0 0 1 4.55-1.59z" fill="#bbbab6"/><path d="m389.686 170.749c1.5-31.582 12.949-69.881 32.7-94.57l1.614-2.017-88-32-5.876 8.814a88 88 0 0 1 -73.224 39.186h-1.8a88 88 0 0 1 -73.22-39.186l-5.88-8.814-88 32 1.614 2.017c19.751 24.689 31.2 62.988 32.7 94.57l4.81 154.859a112.017 112.017 0 0 1 -4.182 36.1v.008a112 112 0 0 0 4.747 74.888l8.311 19.396h240l8.314-19.4a112 112 0 0 0 4.747-74.888v-.008a112.017 112.017 0 0 1 -4.182-36.1z" fill="#cb2527"/><path d="m389.28 184-.5 16h-265.56l-.5-16z" fill="#cb2527"/><path d="m150.4 252.8a8 8 0 0 1 -11.2 1.6l-11.2-8.4-3.28 2.46-.79-25.51 4.07 3.05 11.2-8.4a8 8 0 1 1 9.6 12.8l-7.47 5.6 7.47 5.6a8.005 8.005 0 0 1 1.6 11.2z" fill="#cb2527"/><path d="m388.07 222.95-.79 25.51-3.28-2.46-11.2 8.4a8 8 0 0 1 -9.6-12.8l7.47-5.6-7.47-5.6a8 8 0 1 1 9.6-12.8l11.2 8.4z" fill="#cb2527"/><path d="m390.87 416a110.511 110.511 0 0 1 -4.71 16h-260.32a110.511 110.511 0 0 1 -4.71-16z" fill="#cb2527"/><path d="m136 456h240v32h-240z" fill="#dcdbd6"/><path d="m227.716 323.716h56.569v56.569h-56.569z" fill="#bbbab6" transform="matrix(.707 -.707 .707 .707 -173.921 284.118)"/><path d="m245.319 341.319h21.363v21.363h-21.363z" fill="#cb2527" transform="matrix(.707 -.707 .707 .707 -173.921 284.118)"/><path d="m307.716 323.716h56.569v56.569h-56.569z" fill="#bbbab6" transform="matrix(.707 -.707 .707 .707 -150.489 340.686)"/><path d="m325.319 341.319h21.363v21.363h-21.363z" fill="#cb2527" transform="matrix(.707 -.707 .707 .707 -150.489 340.686)"/><path d="m147.716 323.716h56.569v56.569h-56.569z" fill="#bbbab6" transform="matrix(.707 -.707 .707 .707 -197.352 227.549)"/><path d="m165.319 341.319h21.363v21.363h-21.363z" fill="#cb2527" transform="matrix(.707 -.707 .707 .707 -197.352 227.549)"/><g fill="#dcdbd6"><path d="m390.87 416a110.511 110.511 0 0 1 -4.71 16h-260.32a110.511 110.511 0 0 1 -4.71-16z"/><path d="m392 272h-272c-4.418 0 0 3.582 0 8a8 8 0 0 0 8 8h256a8 8 0 0 0 8-8c0-4.418 4.418-8 0-8z"/><path d="m278.4 219.2a8 8 0 0 0 -11.2-1.6l-11.2 8.4-11.2-8.4a8 8 0 1 0 -9.6 12.8l7.467 5.6-7.467 5.6a8 8 0 1 0 9.6 12.8l11.2-8.4 11.2 8.4a8 8 0 0 0 9.6-12.8l-7.467-5.6 7.467-5.6a8 8 0 0 0 1.6-11.2z"/><path d="m342.4 219.2a8 8 0 0 0 -11.2-1.6l-11.2 8.4-11.2-8.4a8 8 0 1 0 -9.6 12.8l7.467 5.6-7.467 5.6a8 8 0 1 0 9.6 12.8l11.2-8.4 11.2 8.4a8 8 0 0 0 9.6-12.8l-7.467-5.6 7.467-5.6a8 8 0 0 0 1.6-11.2z"/><path d="m214.4 219.2a8 8 0 0 0 -11.2-1.6l-11.2 8.4-11.2-8.4a8 8 0 0 0 -9.6 12.8l7.467 5.6-7.467 5.6a8 8 0 1 0 9.6 12.8l11.2-8.4 11.2 8.4a8 8 0 0 0 9.6-12.8l-7.467-5.6 7.467-5.6a8 8 0 0 0 1.6-11.2z"/><path d="m150.4 252.8a8 8 0 0 1 -11.2 1.6l-11.2-8.4-3.28 2.46-.79-25.51 4.07 3.05 11.2-8.4a8 8 0 1 1 9.6 12.8l-7.47 5.6 7.47 5.6a8.005 8.005 0 0 1 1.6 11.2z"/><path d="m388.07 222.95-.79 25.51-3.28-2.46-11.2 8.4a8 8 0 0 1 -9.6-12.8l7.47-5.6-7.47-5.6a8 8 0 1 1 9.6-12.8l11.2 8.4z"/><path d="m389.28 184-.5 16h-265.56l-.5-16z"/><circle cx="256" cy="144" r="16"/><circle cx="168" cy="136" r="16"/><circle cx="336" cy="136" r="16"/></g><path d="m330.789 31.74a14 14 0 0 0 -24.171-1.5l-.868 1.3a59.789 59.789 0 0 1 -49.75 26.622 59.789 59.789 0 0 1 -49.75-26.626l-.868-1.3a14 14 0 0 0 -24.171 1.5l-5.211 10.426 5.876 8.814a88 88 0 0 0 73.224 39.186h1.8a88 88 0 0 0 73.22-39.186l5.88-8.814z" fill="#eae9e4"/><path d="m216.27 43.05-22.36 22.36a87.89 87.89 0 0 1 -10.47-12.16v-.01l22.37-22.37.44.67a59.836 59.836 0 0 0 10.02 11.51z" fill="#eae9e4"/><path d="m234.78 54.26-18.06 27.09a86.694 86.694 0 0 1 -13.72-8.28l17.66-26.48a59.372 59.372 0 0 0 7.13 4.5 57.793 57.793 0 0 0 6.99 3.17z" fill="#eae9e4"/><path d="m278.85 87.38a87.665 87.665 0 0 1 -15.8 2.56q-3.06.225-6.15.22h-1.8q-3.09 0-6.15-.22a87.665 87.665 0 0 1 -15.8-2.56l4.58-32.08a59.523 59.523 0 0 0 15.77 2.8c.83.04 1.66.06 2.5.06s1.67-.02 2.5-.06a59.523 59.523 0 0 0 15.77-2.8z" fill="#eae9e4"/><path d="m309 73.07a86.694 86.694 0 0 1 -13.72 8.28l-18.06-27.09a59.107 59.107 0 0 0 14.12-7.67z" fill="#eae9e4"/><path d="m328.56 53.24v.01a87.89 87.89 0 0 1 -10.47 12.16l-22.36-22.36a59.836 59.836 0 0 0 10.02-11.51l.44-.67z" fill="#eae9e4"/><path d="m216.27 43.05-22.36 22.36a87.89 87.89 0 0 1 -10.47-12.16v-.01l22.37-22.37.44.67a59.836 59.836 0 0 0 10.02 11.51z" fill="#cdccc8"/><path d="m234.78 54.26-18.06 27.09a86.694 86.694 0 0 1 -13.72-8.28l17.66-26.48a59.372 59.372 0 0 0 7.13 4.5 57.793 57.793 0 0 0 6.99 3.17z" fill="#cdccc8"/><path d="m253.5 58.1-4.55 31.84a87.665 87.665 0 0 1 -15.8-2.56l4.58-32.08a59.523 59.523 0 0 0 15.77 2.8z" fill="#cdccc8"/><path d="m328.56 53.24v.01a87.89 87.89 0 0 1 -10.47 12.16l-22.36-22.36a59.836 59.836 0 0 0 10.02-11.51l.44-.67z" fill="#cdccc8"/><path d="m309 73.07a86.694 86.694 0 0 1 -13.72 8.28l-18.06-27.09a59.107 59.107 0 0 0 14.12-7.67z" fill="#cdccc8"/><path d="m263.05 89.94a87.665 87.665 0 0 0 15.8-2.56l-4.58-32.08a59.523 59.523 0 0 1 -15.77 2.8z" fill="#cdccc8"/><path d="m86.4 240.49a8 8 0 0 1 -11.2 1.6l-11.2-8.4-11.2 8.4a7.951 7.951 0 0 1 -4.79 1.6 8.154 8.154 0 0 1 -2.63-.44l2.74-17.64v-.01l2.55-1.91-2.02-1.51v-.01l2.74-17.72a7.289 7.289 0 0 1 1.41.84l11.2 8.4 11.2-8.4a8 8 0 1 1 9.6 12.8l-7.47 5.6 7.47 5.6a8 8 0 0 1 1.6 11.2z" fill="#bbbab6"/><path d="m467.1 246.32-11.1-8.32-11.2 8.4a8 8 0 0 1 -9.6-12.8l7.47-5.6-7.47-5.6a8 8 0 1 1 9.6-12.8l11.2 8.4 6.01-4.51z" fill="#bbbab6"/></g></svg>