<svg id="Layer_1" enable-background="new 0 0 512 512" height="512" viewBox="0 0 512 512" width="512" xmlns="http://www.w3.org/2000/svg"><g><path d="m216.319 123.815c-28.782-28.782-26.997-59.339-7.048-79.287s50.505-21.734 79.287 7.048 31.586 90.539 24.943 97.182-68.4 3.84-97.182-24.943z" fill="#64cc56"/><path d="m288.557 51.576c-20.751-20.751-42.422-25.609-60.377-19.232 9.705 3.208 19.691 9.45 29.472 19.232 28.782 28.782 31.586 90.539 24.943 97.182-.672.672-1.916 1.245-3.625 1.707 17.332 2.362 31.535 1.289 34.53-1.707 6.643-6.642 3.84-68.399-24.943-97.182z" fill="#5bbd4f"/><path d="m227.483 135.984h-32.966v-119.501c0-9.103 7.38-16.483 16.483-16.483 9.103 0 16.483 7.38 16.483 16.483z" fill="#795548"/><ellipse cx="211" cy="313.175" fill="#ffb300" rx="211" ry="198.825"/><path d="m210.813 114.35c-5.193 0-10.34.185-15.439.532 109.323 7.451 195.561 93.378 195.561 198.293s-86.238 190.842-195.561 198.293c5.099.348 10.246.532 15.439.532 116.532 0 211-89.017 211-198.825s-94.468-198.825-211-198.825z" fill="#ffa000"/><path d="m205.683 134.36c-28.78 28.78-90.54 31.59-97.18 24.94-6.65-6.64-3.84-68.4 24.94-97.18 26.18-26.18 53.83-27.06 73.63-12 1.97 1.5 3.86 3.15 5.66 4.95s3.45 3.69 4.95 5.66c15.07 19.8 14.18 47.45-12 73.63z" fill="#64cc56"/><path d="m212.73 55.074c-13.169-13.169-30.962-18.414-49.815-12.183 6.95 2.468 13.343 6.616 18.91 12.183 19.948 19.948 21.734 50.505-7.048 79.287-15.804 15.804-41.548 23.774-62.652 26.65 15.182 4.101 67.686-.779 93.557-26.65 28.782-28.782 26.996-59.339 7.048-79.287z" fill="#5bbd4f"/><path d="m187.293 113.82c.3 4.13-2.81 7.72-6.95 8.01-4.69.11-7.86-4.07-8.01-6.95l-.58-8.22-23.04 23.04c-3.9 3.4-8.26 2.16-10.61 0-2.93-2.93-2.93-7.68 0-10.61l21.86-21.86h-8.61c-10.01-.77-9.26-14.75 0-15h23.61l32.11-32.11c1.97 1.5 3.86 3.15 5.66 4.95s3.45 3.69 4.95 5.66l-31.89 31.89z" fill="#50a645"/><g fill="#ef6c00"><path d="m55.958 363.498-7.689 2.292c-3.97 1.184-6.228 5.361-5.044 9.331.97 3.255 3.953 5.359 7.184 5.359.709 0 1.432-.102 2.146-.315l7.689-2.292c3.97-1.184 6.228-5.361 5.044-9.331-1.183-3.97-5.364-6.23-9.33-5.044z"/><path d="m147.779 440.061c-4.096-.61-7.912 2.219-8.521 6.316l-1.179 7.937c-.609 4.097 2.219 7.912 6.316 8.521.374.056.745.083 1.111.083 3.654 0 6.856-2.675 7.409-6.399l1.179-7.937c.61-4.098-2.218-7.913-6.315-8.521z"/><path d="m105.085 405.973c-3.129-2.714-7.866-2.376-10.58.753l-5.668 6.538c-2.713 3.129-2.376 7.866.753 10.58 1.419 1.23 3.168 1.833 4.91 1.833 2.099 0 4.187-.876 5.67-2.587l5.668-6.538c2.714-3.129 2.377-7.866-.753-10.579z"/></g><path d="m456.436 197.584c1.596-1.596 4.186-1.546 5.745.085 39.66 41.497 55.583 97.503 47.976 151.29-5.529 39.107-23.5 77.041-53.83 107.371s-68.264 48.301-107.364 53.823c-53.794 7.614-109.801-8.308-151.297-47.968-1.631-1.559-1.681-4.149-.085-5.745z" fill="#ffe082"/><path d="m437.003 217.018c41.768 41.768 58.646 99.166 50.858 154.238-4.845 34.266-19.243 67.63-43.136 95.769 3.975-3.376 7.847-6.94 11.602-10.694 30.33-30.33 48.301-68.264 53.83-107.371 7.607-53.787-8.316-109.793-47.976-151.29-1.559-1.631-4.149-1.681-5.745-.085z" fill="#ffd54f"/><path d="m437.01 217.01c34.596 34.596 48.442 82.362 41.768 128.188-4.704 32.352-19.643 63.73-44.741 88.828s-56.484 40.044-88.835 44.748c-45.826 6.674-93.592-7.187-128.181-41.776z" fill="#ffca28"/><path d="m437.01 217.01-16.959 16.959c23.816 32.381 32.836 72.497 27.195 111.23-4.705 32.352-19.643 63.73-44.741 88.828s-56.484 40.044-88.835 44.748c-2.216.323-4.438.583-6.661.809 12.666 1.305 25.503 1.039 38.193-.809 32.352-4.704 63.737-19.65 88.835-44.748s40.037-56.476 44.741-88.828c6.674-45.827-7.172-93.592-41.768-128.189z" fill="#ffb300"/><g fill="#ffa000"><path d="m305.67 348.35 16.07-16.07-9.54 147.76c-5-.35-9.98-.94-14.92-1.77z"/><path d="m343.12 310.9 125.68 70.93c-1.89 4.62-4 9.17-6.35 13.64l-127.27-71.82 72.05 131.96c-4.24 2.72-8.58 5.21-13 7.48l-71.8-131.5z"/><path d="m479.24 303.87-135.63 6.54 15.78-15.78 117.25-5.65c1.12 4.92 1.99 9.89 2.6 14.89z"/></g></g></svg>