<svg id="Capa_1" enable-background="new 0 0 512 512" height="512" viewBox="0 0 512 512" width="512" xmlns="http://www.w3.org/2000/svg"><g><path d="m439.315 74.303s-93.019-28.659-183.315-28.659-183.315 28.659-183.315 28.659l-.002-.003c-12.364 57.63-23.159 132.998-30.221 207.927 13.904 101.477 93.32 166.958 162.368 134.204 15.596-51.475 31.847-111.575 45.672-168.53 1.401-5.771 9.597-5.771 10.997 0 13.825 56.955 30.076 117.054 45.672 168.53 69.048 32.754 148.463-32.728 162.368-134.204-7.062-74.929-17.858-150.296-30.221-207.927z" fill="#cde9fa"/><path d="m148.385 56.472c-44.165 8.117-75.7 17.831-75.7 17.831l-.002-.003c-12.364 57.63-23.159 132.998-30.221 207.927 11.47 83.712 67.523 142.918 125.559 142.698-27.717-78.412-30.313-236.65-19.636-368.453z" fill="#a2ddfd"/><g fill="#7acefa"><path d="m112.324 132.62c-3.636-1.983-8.192-.644-10.176 2.992-13.673 25.067-33.876 34.947-46.945 38.83-.76 5.298-1.505 10.64-2.234 16.024 14.838-3.236 43.85-13.757 62.348-47.67 1.983-3.637.643-8.192-2.993-10.176z"/><path d="m456.797 174.442c-13.069-3.883-33.273-13.762-46.946-38.83-1.983-3.634-6.536-4.976-10.176-2.992-3.636 1.983-4.976 6.539-2.992 10.176 18.498 33.913 47.51 44.434 62.348 47.67-.729-5.384-1.474-10.726-2.234-16.024z"/></g><path d="m260.737 177.27h-12.171c-4.143 0-7.5-3.358-7.5-7.5 0-4.143 3.357-7.5 7.5-7.5h12.171c11.18 0 20.275-9.096 20.275-20.275v-93.217c0-4.143 3.357-7.5 7.5-7.5s7.5 3.357 7.5 7.5v93.216c.001 19.451-15.823 35.276-35.275 35.276z" fill="#7acefa"/><path d="m179.427 493.71c7.877-21.514 16.534-48.007 25.403-77.279-72.32-13.978-138.05-87.451-162.368-134.205-6.966 73.912-10.3 147.388-7.921 202.964.641 14.982 12.936 26.81 27.932 26.81h90.724c11.712 0 22.203-7.292 26.23-18.29z" fill="#a0bce7"/><path d="m179.427 493.71c3.349-9.147 6.84-19.201 10.427-29.979-12.249-12.034-21.798-34.106-29.007-62.988-53.901-27.723-99.128-81.493-118.385-118.517-6.966 73.912-10.3 147.388-7.921 202.964.641 14.982 12.936 26.81 27.932 26.81h90.724c11.712 0 22.203-7.292 26.23-18.29z" fill="#7ca2dd"/><path d="m332.573 493.71c-7.877-21.514-16.534-48.007-25.403-77.279 72.32-13.978 138.049-87.45 162.368-134.204 6.966 73.912 10.3 147.388 7.921 202.964-.641 14.981-12.936 26.809-27.932 26.809h-90.724c-11.712 0-22.203-7.292-26.23-18.29z" fill="#a0bce7"/><path d="m439.315 74.303c-3.381-15.757-6.878-30.195-10.448-42.932-3.948-14.086-16.771-23.825-31.4-23.825h-282.934c-14.629 0-27.451 9.739-31.4 23.825-3.57 12.737-7.068 27.175-10.448 42.932z" fill="#565e75"/><path d="m114.533 7.545c-14.629 0-27.451 9.739-31.4 23.825-3.57 12.737-7.068 27.174-10.448 42.932h74.346c1.631-23.078 3.671-45.511 6.061-66.757h-38.559z" fill="#3a4351"/><path d="m39.088 200.896c-3.215 24.948-6.069 50.522-8.495 76.026-.877 9.217 6.086 17.312 15.329 17.841 6.934.397 13.953.769 20.265 1.039 11.464.492 21.371-7.921 22.765-19.311 2.26-18.471 5.64-46.082 7.999-65.257 1.443-11.729-6.64-22.462-18.297-24.399-5.824-.968-12.274-1.77-18.848-2.409-10.218-.993-19.406 6.289-20.718 16.47z" fill="#e8899e"/><path d="m472.912 200.896c3.215 24.948 6.069 50.522 8.495 76.026.877 9.217-6.086 17.312-15.329 17.841-6.934.397-13.953.769-20.265 1.039-11.464.492-21.372-7.921-22.765-19.311-2.26-18.471-5.64-46.082-7.999-65.257-1.443-11.729 6.64-22.462 18.297-24.399 5.824-.968 12.274-1.77 18.848-2.409 10.218-.993 19.406 6.289 20.718 16.47z" fill="#e8899e"/><g fill="#a0bce7"><path d="m168.643 85.981h-22.358c-8.536 0-15.455-6.92-15.455-15.455v-55.071c0-8.536 6.92-15.455 15.456-15.455h22.358c8.536 0 15.455 6.919 15.455 15.455v55.071c-.001 8.535-6.92 15.455-15.456 15.455z"/><path d="m343.357 85.981h22.358c8.536 0 15.455-6.92 15.455-15.455v-55.071c0-8.536-6.92-15.455-15.456-15.455h-22.358c-8.536 0-15.455 6.919-15.455 15.455v55.071c.001 8.535 6.92 15.455 15.456 15.455z"/></g></g></svg>