<svg width="194" height="100" viewBox="0 0 194 100" fill="none" xmlns="http://www.w3.org/2000/svg">
<path d="M2.4084 8.5135C-0.711291 5.35482 1.52626 0 5.96583 0H189C191.761 0 194 2.23858 194 5V50.625V95C194 97.7614 191.761 100 189 100H6.17926C1.70955 100 -0.514346 94.5829 2.66603 91.4423L40.442 54.1385C42.407 52.1981 42.4268 49.0321 40.4862 47.0673L2.4084 8.5135Z" fill="#006EAC"/>
<path d="M69.832 50.3945C67.9023 49.8398 66.4961 49.1602 65.6133 48.3555C64.7383 47.543 64.3008 46.543 64.3008 45.3555C64.3008 44.0117 64.8359 42.9023 65.9062 42.0273C66.9844 41.1445 68.3828 40.7031 70.1016 40.7031C71.2734 40.7031 72.3164 40.9297 73.2305 41.3828C74.1523 41.8359 74.8633 42.4609 75.3633 43.2578C75.8711 44.0547 76.125 44.9258 76.125 45.8711H73.8633C73.8633 44.8398 73.5352 44.0312 72.8789 43.4453C72.2227 42.8516 71.2969 42.5547 70.1016 42.5547C68.9922 42.5547 68.125 42.8008 67.5 43.293C66.8828 43.7773 66.5742 44.4531 66.5742 45.3203C66.5742 46.0156 66.8672 46.6055 67.4531 47.0898C68.0469 47.5664 69.0508 48.0039 70.4648 48.4023C71.8867 48.8008 72.9961 49.2422 73.793 49.7266C74.5977 50.2031 75.1914 50.7617 75.5742 51.4023C75.9648 52.043 76.1602 52.7969 76.1602 53.6641C76.1602 55.0469 75.6211 56.1562 74.543 56.9922C73.4648 57.8203 72.0234 58.2344 70.2188 58.2344C69.0469 58.2344 67.9531 58.0117 66.9375 57.5664C65.9219 57.1133 65.1367 56.4961 64.582 55.7148C64.0352 54.9336 63.7617 54.0469 63.7617 53.0547H66.0234C66.0234 54.0859 66.4023 54.9023 67.1602 55.5039C67.9258 56.0977 68.9453 56.3945 70.2188 56.3945C71.4062 56.3945 72.3164 56.1523 72.9492 55.668C73.582 55.1836 73.8984 54.5234 73.8984 53.6875C73.8984 52.8516 73.6055 52.207 73.0195 51.7539C72.4336 51.293 71.3711 50.8398 69.832 50.3945ZM86.543 56.7461C85.6992 57.7383 84.4609 58.2344 82.8281 58.2344C81.4766 58.2344 80.4453 57.8438 79.7344 57.0625C79.0312 56.2734 78.6758 55.1094 78.668 53.5703V45.3203H80.8359V53.5117C80.8359 55.4336 81.6172 56.3945 83.1797 56.3945C84.8359 56.3945 85.9375 55.7773 86.4844 54.543V45.3203H88.6523V58H86.5898L86.543 56.7461ZM93.9961 45.3203L94.0547 46.7266C94.9844 45.6328 96.2383 45.0859 97.8164 45.0859C99.5898 45.0859 100.797 45.7656 101.438 47.125C101.859 46.5156 102.406 46.0234 103.078 45.6484C103.758 45.2734 104.559 45.0859 105.48 45.0859C108.262 45.0859 109.676 46.5586 109.723 49.5039V58H107.555V49.6328C107.555 48.7266 107.348 48.0508 106.934 47.6055C106.52 47.1523 105.824 46.9258 104.848 46.9258C104.043 46.9258 103.375 47.168 102.844 47.6523C102.312 48.1289 102.004 48.7734 101.918 49.5859V58H99.7383V49.6914C99.7383 47.8477 98.8359 46.9258 97.0312 46.9258C95.6094 46.9258 94.6367 47.5312 94.1133 48.7422V58H91.9453V45.3203H93.9961ZM115.043 45.3203L115.102 46.7266C116.031 45.6328 117.285 45.0859 118.863 45.0859C120.637 45.0859 121.844 45.7656 122.484 47.125C122.906 46.5156 123.453 46.0234 124.125 45.6484C124.805 45.2734 125.605 45.0859 126.527 45.0859C129.309 45.0859 130.723 46.5586 130.77 49.5039V58H128.602V49.6328C128.602 48.7266 128.395 48.0508 127.98 47.6055C127.566 47.1523 126.871 46.9258 125.895 46.9258C125.09 46.9258 124.422 47.168 123.891 47.6523C123.359 48.1289 123.051 48.7734 122.965 49.5859V58H120.785V49.6914C120.785 47.8477 119.883 46.9258 118.078 46.9258C116.656 46.9258 115.684 47.5312 115.16 48.7422V58H112.992V45.3203H115.043ZM141.879 58C141.754 57.75 141.652 57.3047 141.574 56.6641C140.566 57.7109 139.363 58.2344 137.965 58.2344C136.715 58.2344 135.688 57.8828 134.883 57.1797C134.086 56.4688 133.688 55.5703 133.688 54.4844C133.688 53.1641 134.188 52.1406 135.188 51.4141C136.195 50.6797 137.609 50.3125 139.43 50.3125H141.539V49.3164C141.539 48.5586 141.312 47.957 140.859 47.5117C140.406 47.0586 139.738 46.832 138.855 46.832C138.082 46.832 137.434 47.0273 136.91 47.418C136.387 47.8086 136.125 48.2812 136.125 48.8359H133.945C133.945 48.2031 134.168 47.5938 134.613 47.0078C135.066 46.4141 135.676 45.9453 136.441 45.6016C137.215 45.2578 138.062 45.0859 138.984 45.0859C140.445 45.0859 141.59 45.4531 142.418 46.1875C143.246 46.9141 143.676 47.918 143.707 49.1992V55.0352C143.707 56.1992 143.855 57.125 144.152 57.8125V58H141.879ZM138.281 56.3477C138.961 56.3477 139.605 56.1719 140.215 55.8203C140.824 55.4688 141.266 55.0117 141.539 54.4492V51.8477H139.84C137.184 51.8477 135.855 52.625 135.855 54.1797C135.855 54.8594 136.082 55.3906 136.535 55.7734C136.988 56.1562 137.57 56.3477 138.281 56.3477ZM153.234 47.2656C152.906 47.2109 152.551 47.1836 152.168 47.1836C150.746 47.1836 149.781 47.7891 149.273 49V58H147.105V45.3203H149.215L149.25 46.7852C149.961 45.6523 150.969 45.0859 152.273 45.0859C152.695 45.0859 153.016 45.1406 153.234 45.25V47.2656ZM159.598 54.8242L162.551 45.3203H164.871L159.773 59.957C158.984 62.0664 157.73 63.1211 156.012 63.1211L155.602 63.0859L154.793 62.9336V61.1758L155.379 61.2227C156.113 61.2227 156.684 61.0742 157.09 60.7773C157.504 60.4805 157.844 59.9375 158.109 59.1484L158.59 57.8594L154.066 45.3203H156.434L159.598 54.8242Z" fill="#FFFAFA"/>
</svg>
