<svg width="242" height="100" viewBox="0 0 242 100" fill="none" xmlns="http://www.w3.org/2000/svg">
<path d="M2.43387 8.51795C-0.691886 5.36103 1.54433 0 5.9869 0H192.397C193.743 0 195.032 0.542345 195.972 1.50446L240.539 47.0855C242.456 49.046 242.437 52.1846 240.495 54.121L195.965 98.54C195.028 99.4749 193.758 100 192.434 100H6.20096C1.72823 100 -0.494249 94.5767 2.6922 91.4379L40.554 54.1428C42.5249 52.2015 42.5447 49.0287 40.5983 47.0628L2.43387 8.51795Z" fill="#006EAC"/>
<path d="M58.1523 39.3203V46H55.9023V28.9375H62.1953C64.0625 28.9375 65.5234 29.4141 66.5781 30.3672C67.6406 31.3203 68.1719 32.582 68.1719 34.1523C68.1719 35.8086 67.6523 37.0859 66.6133 37.9844C65.582 38.875 64.1016 39.3203 62.1719 39.3203H58.1523ZM58.1523 37.4805H62.1953C63.3984 37.4805 64.3203 37.1992 64.9609 36.6367C65.6016 36.0664 65.9219 35.2461 65.9219 34.1758C65.9219 33.1602 65.6016 32.3477 64.9609 31.7383C64.3203 31.1289 63.4414 30.8125 62.3242 30.7891H58.1523V37.4805ZM78.5312 44.7461C77.6875 45.7383 76.4492 46.2344 74.8164 46.2344C73.4648 46.2344 72.4336 45.8438 71.7227 45.0625C71.0195 44.2734 70.6641 43.1094 70.6562 41.5703V33.3203H72.8242V41.5117C72.8242 43.4336 73.6055 44.3945 75.168 44.3945C76.8242 44.3945 77.9258 43.7773 78.4727 42.543V33.3203H80.6406V46H78.5781L78.5312 44.7461ZM90.0742 35.2656C89.7461 35.2109 89.3906 35.1836 89.0078 35.1836C87.5859 35.1836 86.6211 35.7891 86.1133 37V46H83.9453V33.3203H86.0547L86.0898 34.7852C86.8008 33.6523 87.8086 33.0859 89.1133 33.0859C89.5352 33.0859 89.8555 33.1406 90.0742 33.25V35.2656ZM96.9297 44.4648C97.7031 44.4648 98.3789 44.2305 98.957 43.7617C99.5352 43.293 99.8555 42.707 99.918 42.0039H101.969C101.93 42.7305 101.68 43.4219 101.219 44.0781C100.758 44.7344 100.141 45.2578 99.3672 45.6484C98.6016 46.0391 97.7891 46.2344 96.9297 46.2344C95.2031 46.2344 93.8281 45.6602 92.8047 44.5117C91.7891 43.3555 91.2812 41.7773 91.2812 39.7773V39.4141C91.2812 38.1797 91.5078 37.082 91.9609 36.1211C92.4141 35.1602 93.0625 34.4141 93.9062 33.8828C94.7578 33.3516 95.7617 33.0859 96.918 33.0859C98.3398 33.0859 99.5195 33.5117 100.457 34.3633C101.402 35.2148 101.906 36.3203 101.969 37.6797H99.918C99.8555 36.8594 99.543 36.1875 98.9805 35.6641C98.4258 35.1328 97.7383 34.8672 96.918 34.8672C95.8164 34.8672 94.9609 35.2656 94.3516 36.0625C93.75 36.8516 93.4492 37.9961 93.4492 39.4961V39.9062C93.4492 41.3672 93.75 42.4922 94.3516 43.2812C94.9531 44.0703 95.8125 44.4648 96.9297 44.4648ZM106.574 34.8555C107.535 33.6758 108.785 33.0859 110.324 33.0859C113.004 33.0859 114.355 34.5977 114.379 37.6211V46H112.211V37.6094C112.203 36.6953 111.992 36.0195 111.578 35.582C111.172 35.1445 110.535 34.9258 109.668 34.9258C108.965 34.9258 108.348 35.1133 107.816 35.4883C107.285 35.8633 106.871 36.3555 106.574 36.9648V46H104.406V28H106.574V34.8555ZM125.453 46C125.328 45.75 125.227 45.3047 125.148 44.6641C124.141 45.7109 122.938 46.2344 121.539 46.2344C120.289 46.2344 119.262 45.8828 118.457 45.1797C117.66 44.4688 117.262 43.5703 117.262 42.4844C117.262 41.1641 117.762 40.1406 118.762 39.4141C119.77 38.6797 121.184 38.3125 123.004 38.3125H125.113V37.3164C125.113 36.5586 124.887 35.957 124.434 35.5117C123.98 35.0586 123.312 34.832 122.43 34.832C121.656 34.832 121.008 35.0273 120.484 35.418C119.961 35.8086 119.699 36.2812 119.699 36.8359H117.52C117.52 36.2031 117.742 35.5938 118.188 35.0078C118.641 34.4141 119.25 33.9453 120.016 33.6016C120.789 33.2578 121.637 33.0859 122.559 33.0859C124.02 33.0859 125.164 33.4531 125.992 34.1875C126.82 34.9141 127.25 35.918 127.281 37.1992V43.0352C127.281 44.1992 127.43 45.125 127.727 45.8125V46H125.453ZM121.855 44.3477C122.535 44.3477 123.18 44.1719 123.789 43.8203C124.398 43.4688 124.84 43.0117 125.113 42.4492V39.8477H123.414C120.758 39.8477 119.43 40.625 119.43 42.1797C119.43 42.8594 119.656 43.3906 120.109 43.7734C120.562 44.1562 121.145 44.3477 121.855 44.3477ZM138.062 42.6367C138.062 42.0508 137.84 41.5977 137.395 41.2773C136.957 40.9492 136.188 40.668 135.086 40.4336C133.992 40.1992 133.121 39.918 132.473 39.5898C131.832 39.2617 131.355 38.8711 131.043 38.418C130.738 37.9648 130.586 37.4258 130.586 36.8008C130.586 35.7617 131.023 34.8828 131.898 34.1641C132.781 33.4453 133.906 33.0859 135.273 33.0859C136.711 33.0859 137.875 33.457 138.766 34.1992C139.664 34.9414 140.113 35.8906 140.113 37.0469H137.934C137.934 36.4531 137.68 35.9414 137.172 35.5117C136.672 35.082 136.039 34.8672 135.273 34.8672C134.484 34.8672 133.867 35.0391 133.422 35.3828C132.977 35.7266 132.754 36.1758 132.754 36.7305C132.754 37.2539 132.961 37.6484 133.375 37.9141C133.789 38.1797 134.535 38.4336 135.613 38.6758C136.699 38.918 137.578 39.207 138.25 39.543C138.922 39.8789 139.418 40.2852 139.738 40.7617C140.066 41.2305 140.23 41.8047 140.23 42.4844C140.23 43.6172 139.777 44.5273 138.871 45.2148C137.965 45.8945 136.789 46.2344 135.344 46.2344C134.328 46.2344 133.43 46.0547 132.648 45.6953C131.867 45.3359 131.254 44.8359 130.809 44.1953C130.371 43.5469 130.152 42.8477 130.152 42.0977H132.32C132.359 42.8242 132.648 43.4023 133.188 43.832C133.734 44.2539 134.453 44.4648 135.344 44.4648C136.164 44.4648 136.82 44.3008 137.312 43.9727C137.812 43.6367 138.062 43.1914 138.062 42.6367ZM148.316 46.2344C146.598 46.2344 145.199 45.6719 144.121 44.5469C143.043 43.4141 142.504 41.9023 142.504 40.0117V39.6133C142.504 38.3555 142.742 37.2344 143.219 36.25C143.703 35.2578 144.375 34.4844 145.234 33.9297C146.102 33.3672 147.039 33.0859 148.047 33.0859C149.695 33.0859 150.977 33.6289 151.891 34.7148C152.805 35.8008 153.262 37.3555 153.262 39.3789V40.2812H144.672C144.703 41.5312 145.066 42.543 145.762 43.3164C146.465 44.082 147.355 44.4648 148.434 44.4648C149.199 44.4648 149.848 44.3086 150.379 43.9961C150.91 43.6836 151.375 43.2695 151.773 42.7539L153.098 43.7852C152.035 45.418 150.441 46.2344 148.316 46.2344ZM148.047 34.8672C147.172 34.8672 146.438 35.1875 145.844 35.8281C145.25 36.4609 144.883 37.3516 144.742 38.5H151.094V38.3359C151.031 37.2344 150.734 36.3828 150.203 35.7812C149.672 35.1719 148.953 34.8672 148.047 34.8672ZM162.074 46V28.9375H166.891C168.375 28.9375 169.688 29.2656 170.828 29.9219C171.969 30.5781 172.848 31.5117 173.465 32.7227C174.09 33.9336 174.406 35.3242 174.414 36.8945V37.9844C174.414 39.5938 174.102 41.0039 173.477 42.2148C172.859 43.4258 171.973 44.3555 170.816 45.0039C169.668 45.6523 168.328 45.9844 166.797 46H162.074ZM164.324 30.7891V44.1602H166.691C168.426 44.1602 169.773 43.6211 170.734 42.543C171.703 41.4648 172.188 39.9297 172.188 37.9375V36.9414C172.188 35.0039 171.73 33.5 170.816 32.4297C169.91 31.3516 168.621 30.8047 166.949 30.7891H164.324ZM185.312 46C185.188 45.75 185.086 45.3047 185.008 44.6641C184 45.7109 182.797 46.2344 181.398 46.2344C180.148 46.2344 179.121 45.8828 178.316 45.1797C177.52 44.4688 177.121 43.5703 177.121 42.4844C177.121 41.1641 177.621 40.1406 178.621 39.4141C179.629 38.6797 181.043 38.3125 182.863 38.3125H184.973V37.3164C184.973 36.5586 184.746 35.957 184.293 35.5117C183.84 35.0586 183.172 34.832 182.289 34.832C181.516 34.832 180.867 35.0273 180.344 35.418C179.82 35.8086 179.559 36.2812 179.559 36.8359H177.379C177.379 36.2031 177.602 35.5938 178.047 35.0078C178.5 34.4141 179.109 33.9453 179.875 33.6016C180.648 33.2578 181.496 33.0859 182.418 33.0859C183.879 33.0859 185.023 33.4531 185.852 34.1875C186.68 34.9141 187.109 35.918 187.141 37.1992V43.0352C187.141 44.1992 187.289 45.125 187.586 45.8125V46H185.312ZM181.715 44.3477C182.395 44.3477 183.039 44.1719 183.648 43.8203C184.258 43.4688 184.699 43.0117 184.973 42.4492V39.8477H183.273C180.617 39.8477 179.289 40.625 179.289 42.1797C179.289 42.8594 179.516 43.3906 179.969 43.7734C180.422 44.1562 181.004 44.3477 181.715 44.3477ZM194.5 42.8242L197.453 33.3203H199.773L194.676 47.957C193.887 50.0664 192.633 51.1211 190.914 51.1211L190.504 51.0859L189.695 50.9336V49.1758L190.281 49.2227C191.016 49.2227 191.586 49.0742 191.992 48.7773C192.406 48.4805 192.746 47.9375 193.012 47.1484L193.492 45.8594L188.969 33.3203H191.336L194.5 42.8242ZM101.734 74V56.9375H107.312C109.164 56.9375 110.555 57.3203 111.484 58.0859C112.422 58.8516 112.891 59.9844 112.891 61.4844C112.891 62.2812 112.664 62.9883 112.211 63.6055C111.758 64.2148 111.141 64.6875 110.359 65.0234C111.281 65.2812 112.008 65.7734 112.539 66.5C113.078 67.2188 113.348 68.0781 113.348 69.0781C113.348 70.6094 112.852 71.8125 111.859 72.6875C110.867 73.5625 109.465 74 107.652 74H101.734ZM103.984 66.0195V72.1602H107.699C108.746 72.1602 109.57 71.8906 110.172 71.3516C110.781 70.8047 111.086 70.0547 111.086 69.1016C111.086 67.0469 109.969 66.0195 107.734 66.0195H103.984ZM103.984 64.2148H107.383C108.367 64.2148 109.152 63.9688 109.738 63.4766C110.332 62.9844 110.629 62.3164 110.629 61.4727C110.629 60.5352 110.355 59.8555 109.809 59.4336C109.262 59.0039 108.43 58.7891 107.312 58.7891H103.984V64.2148ZM115.773 67.543C115.773 66.3008 116.016 65.1836 116.5 64.1914C116.992 63.1992 117.672 62.4336 118.539 61.8945C119.414 61.3555 120.41 61.0859 121.527 61.0859C123.254 61.0859 124.648 61.6836 125.711 62.8789C126.781 64.0742 127.316 65.6641 127.316 67.6484V67.8008C127.316 69.0352 127.078 70.1445 126.602 71.1289C126.133 72.1055 125.457 72.8672 124.574 73.4141C123.699 73.9609 122.691 74.2344 121.551 74.2344C119.832 74.2344 118.438 73.6367 117.367 72.4414C116.305 71.2461 115.773 69.6641 115.773 67.6953V67.543ZM117.953 67.8008C117.953 69.207 118.277 70.3359 118.926 71.1875C119.582 72.0391 120.457 72.4648 121.551 72.4648C122.652 72.4648 123.527 72.0352 124.176 71.1758C124.824 70.3086 125.148 69.0977 125.148 67.543C125.148 66.1523 124.816 65.0273 124.152 64.168C123.496 63.3008 122.621 62.8672 121.527 62.8672C120.457 62.8672 119.594 63.293 118.938 64.1445C118.281 64.9961 117.953 66.2148 117.953 67.8008ZM129.461 67.543C129.461 66.3008 129.703 65.1836 130.188 64.1914C130.68 63.1992 131.359 62.4336 132.227 61.8945C133.102 61.3555 134.098 61.0859 135.215 61.0859C136.941 61.0859 138.336 61.6836 139.398 62.8789C140.469 64.0742 141.004 65.6641 141.004 67.6484V67.8008C141.004 69.0352 140.766 70.1445 140.289 71.1289C139.82 72.1055 139.145 72.8672 138.262 73.4141C137.387 73.9609 136.379 74.2344 135.238 74.2344C133.52 74.2344 132.125 73.6367 131.055 72.4414C129.992 71.2461 129.461 69.6641 129.461 67.6953V67.543ZM131.641 67.8008C131.641 69.207 131.965 70.3359 132.613 71.1875C133.27 72.0391 134.145 72.4648 135.238 72.4648C136.34 72.4648 137.215 72.0352 137.863 71.1758C138.512 70.3086 138.836 69.0977 138.836 67.543C138.836 66.1523 138.504 65.0273 137.84 64.168C137.184 63.3008 136.309 62.8672 135.215 62.8672C134.145 62.8672 133.281 63.293 132.625 64.1445C131.969 64.9961 131.641 66.2148 131.641 67.8008ZM147.262 68.1289L145.902 69.5469V74H143.734V56H145.902V66.8867L147.062 65.4922L151.012 61.3203H153.648L148.715 66.6172L154.223 74H151.68L147.262 68.1289Z" fill="#FFFAFA"/>
</svg>
