<svg width="213" height="100" viewBox="0 0 213 100" fill="none" xmlns="http://www.w3.org/2000/svg">
<path d="M1.71853 8.28464C-1.10027 5.04954 1.19743 0 5.48829 0H168.647C170.103 0 171.487 0.634947 172.437 1.73888L211.659 47.3228C213.287 49.2155 213.27 52.0194 211.618 53.8917L172.434 98.3078C171.485 99.3837 170.119 100 168.685 100H5.67156C1.35141 100 -0.935396 94.8906 1.94282 91.6689L35.6713 53.9148C37.3505 52.0351 37.3681 49.1994 35.7123 47.299L1.71853 8.28464Z" fill="#006EAC"/>
<path d="M64.8672 49.3945C62.9375 48.8398 61.5312 48.1602 60.6484 47.3555C59.7734 46.543 59.3359 45.543 59.3359 44.3555C59.3359 43.0117 59.8711 41.9023 60.9414 41.0273C62.0195 40.1445 63.418 39.7031 65.1367 39.7031C66.3086 39.7031 67.3516 39.9297 68.2656 40.3828C69.1875 40.8359 69.8984 41.4609 70.3984 42.2578C70.9062 43.0547 71.1602 43.9258 71.1602 44.8711H68.8984C68.8984 43.8398 68.5703 43.0312 67.9141 42.4453C67.2578 41.8516 66.332 41.5547 65.1367 41.5547C64.0273 41.5547 63.1602 41.8008 62.5352 42.293C61.918 42.7773 61.6094 43.4531 61.6094 44.3203C61.6094 45.0156 61.9023 45.6055 62.4883 46.0898C63.082 46.5664 64.0859 47.0039 65.5 47.4023C66.9219 47.8008 68.0312 48.2422 68.8281 48.7266C69.6328 49.2031 70.2266 49.7617 70.6094 50.4023C71 51.043 71.1953 51.7969 71.1953 52.6641C71.1953 54.0469 70.6562 55.1562 69.5781 55.9922C68.5 56.8203 67.0586 57.2344 65.2539 57.2344C64.082 57.2344 62.9883 57.0117 61.9727 56.5664C60.957 56.1133 60.1719 55.4961 59.6172 54.7148C59.0703 53.9336 58.7969 53.0469 58.7969 52.0547H61.0586C61.0586 53.0859 61.4375 53.9023 62.1953 54.5039C62.9609 55.0977 63.9805 55.3945 65.2539 55.3945C66.4414 55.3945 67.3516 55.1523 67.9844 54.668C68.6172 54.1836 68.9336 53.5234 68.9336 52.6875C68.9336 51.8516 68.6406 51.207 68.0547 50.7539C67.4688 50.293 66.4062 49.8398 64.8672 49.3945ZM76.1055 57H73.9375V39H76.1055V57ZM87.4141 57C87.2891 56.75 87.1875 56.3047 87.1094 55.6641C86.1016 56.7109 84.8984 57.2344 83.5 57.2344C82.25 57.2344 81.2227 56.8828 80.418 56.1797C79.6211 55.4688 79.2227 54.5703 79.2227 53.4844C79.2227 52.1641 79.7227 51.1406 80.7227 50.4141C81.7305 49.6797 83.1445 49.3125 84.9648 49.3125H87.0742V48.3164C87.0742 47.5586 86.8477 46.957 86.3945 46.5117C85.9414 46.0586 85.2734 45.832 84.3906 45.832C83.6172 45.832 82.9688 46.0273 82.4453 46.418C81.9219 46.8086 81.6602 47.2812 81.6602 47.8359H79.4805C79.4805 47.2031 79.7031 46.5938 80.1484 46.0078C80.6016 45.4141 81.2109 44.9453 81.9766 44.6016C82.75 44.2578 83.5977 44.0859 84.5195 44.0859C85.9805 44.0859 87.125 44.4531 87.9531 45.1875C88.7812 45.9141 89.2109 46.918 89.2422 48.1992V54.0352C89.2422 55.1992 89.3906 56.125 89.6875 56.8125V57H87.4141ZM83.8164 55.3477C84.4961 55.3477 85.1406 55.1719 85.75 54.8203C86.3594 54.4688 86.8008 54.0117 87.0742 53.4492V50.8477H85.375C82.7188 50.8477 81.3906 51.625 81.3906 53.1797C81.3906 53.8594 81.6172 54.3906 82.0703 54.7734C82.5234 55.1562 83.1055 55.3477 83.8164 55.3477ZM98.7695 46.2656C98.4414 46.2109 98.0859 46.1836 97.7031 46.1836C96.2812 46.1836 95.3164 46.7891 94.8086 48V57H92.6406V44.3203H94.75L94.7852 45.7852C95.4961 44.6523 96.5039 44.0859 97.8086 44.0859C98.2305 44.0859 98.5508 44.1406 98.7695 44.25V46.2656ZM105.133 53.8242L108.086 44.3203H110.406L105.309 58.957C104.52 61.0664 103.266 62.1211 101.547 62.1211L101.137 62.0859L100.328 61.9336V60.1758L100.914 60.2227C101.648 60.2227 102.219 60.0742 102.625 59.7773C103.039 59.4805 103.379 58.9375 103.645 58.1484L104.125 56.8594L99.6016 44.3203H101.969L105.133 53.8242ZM129.965 41.7891H124.48V57H122.242V41.7891H116.77V39.9375H129.965V41.7891ZM138.648 57C138.523 56.75 138.422 56.3047 138.344 55.6641C137.336 56.7109 136.133 57.2344 134.734 57.2344C133.484 57.2344 132.457 56.8828 131.652 56.1797C130.855 55.4688 130.457 54.5703 130.457 53.4844C130.457 52.1641 130.957 51.1406 131.957 50.4141C132.965 49.6797 134.379 49.3125 136.199 49.3125H138.309V48.3164C138.309 47.5586 138.082 46.957 137.629 46.5117C137.176 46.0586 136.508 45.832 135.625 45.832C134.852 45.832 134.203 46.0273 133.68 46.418C133.156 46.8086 132.895 47.2812 132.895 47.8359H130.715C130.715 47.2031 130.938 46.5938 131.383 46.0078C131.836 45.4141 132.445 44.9453 133.211 44.6016C133.984 44.2578 134.832 44.0859 135.754 44.0859C137.215 44.0859 138.359 44.4531 139.188 45.1875C140.016 45.9141 140.445 46.918 140.477 48.1992V54.0352C140.477 55.1992 140.625 56.125 140.922 56.8125V57H138.648ZM135.051 55.3477C135.73 55.3477 136.375 55.1719 136.984 54.8203C137.594 54.4688 138.035 54.0117 138.309 53.4492V50.8477H136.609C133.953 50.8477 132.625 51.625 132.625 53.1797C132.625 53.8594 132.852 54.3906 133.305 54.7734C133.758 55.1562 134.34 55.3477 135.051 55.3477ZM148.129 48.9492L150.941 44.3203H153.473L149.324 50.5898L153.602 57H151.094L148.164 52.2539L145.234 57H142.715L146.992 50.5898L142.844 44.3203H145.352L148.129 48.9492Z" fill="#FFFAFA"/>
</svg>
