<svg width="199" height="100" viewBox="0 0 199 100" fill="none" xmlns="http://www.w3.org/2000/svg">
<path d="M0 5C0 2.23858 2.23858 0 5 0H157.929C159.466 0 160.918 0.707213 161.866 1.91769L197.556 47.5039C198.988 49.3322 198.972 51.9054 197.519 53.7162L161.866 98.13C160.917 99.3122 159.482 100 157.966 100H5.00001C2.23858 100 0 97.7614 0 95V5Z" fill="#E3F2FD"/>
<path d="M39.707 57V39.9375H45.2852C47.1367 39.9375 48.5273 40.3203 49.457 41.0859C50.3945 41.8516 50.8633 42.9844 50.8633 44.4844C50.8633 45.2812 50.6367 45.9883 50.1836 46.6055C49.7305 47.2148 49.1133 47.6875 48.332 48.0234C49.2539 48.2812 49.9805 48.7734 50.5117 49.5C51.0508 50.2188 51.3203 51.0781 51.3203 52.0781C51.3203 53.6094 50.8242 54.8125 49.832 55.6875C48.8398 56.5625 47.4375 57 45.625 57H39.707ZM41.957 49.0195V55.1602H45.6719C46.7188 55.1602 47.543 54.8906 48.1445 54.3516C48.7539 53.8047 49.0586 53.0547 49.0586 52.1016C49.0586 50.0469 47.9414 49.0195 45.707 49.0195H41.957ZM41.957 47.2148H45.3555C46.3398 47.2148 47.125 46.9688 47.7109 46.4766C48.3047 45.9844 48.6016 45.3164 48.6016 44.4727C48.6016 43.5352 48.3281 42.8555 47.7812 42.4336C47.2344 42.0039 46.4023 41.7891 45.2852 41.7891H41.957V47.2148ZM62.1484 57C62.0234 56.75 61.9219 56.3047 61.8438 55.6641C60.8359 56.7109 59.6328 57.2344 58.2344 57.2344C56.9844 57.2344 55.957 56.8828 55.1523 56.1797C54.3555 55.4688 53.957 54.5703 53.957 53.4844C53.957 52.1641 54.457 51.1406 55.457 50.4141C56.4648 49.6797 57.8789 49.3125 59.6992 49.3125H61.8086V48.3164C61.8086 47.5586 61.582 46.957 61.1289 46.5117C60.6758 46.0586 60.0078 45.832 59.125 45.832C58.3516 45.832 57.7031 46.0273 57.1797 46.418C56.6562 46.8086 56.3945 47.2812 56.3945 47.8359H54.2148C54.2148 47.2031 54.4375 46.5938 54.8828 46.0078C55.3359 45.4141 55.9453 44.9453 56.7109 44.6016C57.4844 44.2578 58.332 44.0859 59.2539 44.0859C60.7148 44.0859 61.8594 44.4531 62.6875 45.1875C63.5156 45.9141 63.9453 46.918 63.9766 48.1992V54.0352C63.9766 55.1992 64.125 56.125 64.4219 56.8125V57H62.1484ZM58.5508 55.3477C59.2305 55.3477 59.875 55.1719 60.4844 54.8203C61.0938 54.4688 61.5352 54.0117 61.8086 53.4492V50.8477H60.1094C57.4531 50.8477 56.125 51.625 56.125 53.1797C56.125 53.8594 56.3516 54.3906 56.8047 54.7734C57.2578 55.1562 57.8398 55.3477 58.5508 55.3477ZM74.7578 53.6367C74.7578 53.0508 74.5352 52.5977 74.0898 52.2773C73.6523 51.9492 72.8828 51.668 71.7812 51.4336C70.6875 51.1992 69.8164 50.918 69.168 50.5898C68.5273 50.2617 68.0508 49.8711 67.7383 49.418C67.4336 48.9648 67.2812 48.4258 67.2812 47.8008C67.2812 46.7617 67.7188 45.8828 68.5938 45.1641C69.4766 44.4453 70.6016 44.0859 71.9688 44.0859C73.4062 44.0859 74.5703 44.457 75.4609 45.1992C76.3594 45.9414 76.8086 46.8906 76.8086 48.0469H74.6289C74.6289 47.4531 74.375 46.9414 73.8672 46.5117C73.3672 46.082 72.7344 45.8672 71.9688 45.8672C71.1797 45.8672 70.5625 46.0391 70.1172 46.3828C69.6719 46.7266 69.4492 47.1758 69.4492 47.7305C69.4492 48.2539 69.6562 48.6484 70.0703 48.9141C70.4844 49.1797 71.2305 49.4336 72.3086 49.6758C73.3945 49.918 74.2734 50.207 74.9453 50.543C75.6172 50.8789 76.1133 51.2852 76.4336 51.7617C76.7617 52.2305 76.9258 52.8047 76.9258 53.4844C76.9258 54.6172 76.4727 55.5273 75.5664 56.2148C74.6602 56.8945 73.4844 57.2344 72.0391 57.2344C71.0234 57.2344 70.125 57.0547 69.3438 56.6953C68.5625 56.3359 67.9492 55.8359 67.5039 55.1953C67.0664 54.5469 66.8477 53.8477 66.8477 53.0977H69.0156C69.0547 53.8242 69.3438 54.4023 69.8828 54.832C70.4297 55.2539 71.1484 55.4648 72.0391 55.4648C72.8594 55.4648 73.5156 55.3008 74.0078 54.9727C74.5078 54.6367 74.7578 54.1914 74.7578 53.6367ZM82.1055 57H79.9375V44.3203H82.1055V57ZM79.7617 40.957C79.7617 40.6055 79.8672 40.3086 80.0781 40.0664C80.2969 39.8242 80.6172 39.7031 81.0391 39.7031C81.4609 39.7031 81.7812 39.8242 82 40.0664C82.2188 40.3086 82.3281 40.6055 82.3281 40.957C82.3281 41.3086 82.2188 41.6016 82 41.8359C81.7812 42.0703 81.4609 42.1875 81.0391 42.1875C80.6172 42.1875 80.2969 42.0703 80.0781 41.8359C79.8672 41.6016 79.7617 41.3086 79.7617 40.957ZM90.6719 55.4648C91.4453 55.4648 92.1211 55.2305 92.6992 54.7617C93.2773 54.293 93.5977 53.707 93.6602 53.0039H95.7109C95.6719 53.7305 95.4219 54.4219 94.9609 55.0781C94.5 55.7344 93.8828 56.2578 93.1094 56.6484C92.3438 57.0391 91.5312 57.2344 90.6719 57.2344C88.9453 57.2344 87.5703 56.6602 86.5469 55.5117C85.5312 54.3555 85.0234 52.7773 85.0234 50.7773V50.4141C85.0234 49.1797 85.25 48.082 85.7031 47.1211C86.1562 46.1602 86.8047 45.4141 87.6484 44.8828C88.5 44.3516 89.5039 44.0859 90.6602 44.0859C92.082 44.0859 93.2617 44.5117 94.1992 45.3633C95.1445 46.2148 95.6484 47.3203 95.7109 48.6797H93.6602C93.5977 47.8594 93.2852 47.1875 92.7227 46.6641C92.168 46.1328 91.4805 45.8672 90.6602 45.8672C89.5586 45.8672 88.7031 46.2656 88.0938 47.0625C87.4922 47.8516 87.1914 48.9961 87.1914 50.4961V50.9062C87.1914 52.3672 87.4922 53.4922 88.0938 54.2812C88.6953 55.0703 89.5547 55.4648 90.6719 55.4648ZM106.855 57H104.605V39.9375H106.855V57ZM112.691 44.3203L112.762 45.9141C113.73 44.6953 114.996 44.0859 116.559 44.0859C119.238 44.0859 120.59 45.5977 120.613 48.6211V57H118.445V48.6094C118.438 47.6953 118.227 47.0195 117.812 46.582C117.406 46.1445 116.77 45.9258 115.902 45.9258C115.199 45.9258 114.582 46.1133 114.051 46.4883C113.52 46.8633 113.105 47.3555 112.809 47.9648V57H110.641V44.3203H112.691ZM124.949 57V45.9961H122.945V44.3203H124.949V43.0195C124.949 41.6602 125.312 40.6094 126.039 39.8672C126.766 39.125 127.793 38.7539 129.121 38.7539C129.621 38.7539 130.117 38.8203 130.609 38.9531L130.492 40.7109C130.125 40.6406 129.734 40.6055 129.32 40.6055C128.617 40.6055 128.074 40.8125 127.691 41.2266C127.309 41.6328 127.117 42.2188 127.117 42.9844V44.3203H129.824V45.9961H127.117V57H124.949ZM131.652 50.543C131.652 49.3008 131.895 48.1836 132.379 47.1914C132.871 46.1992 133.551 45.4336 134.418 44.8945C135.293 44.3555 136.289 44.0859 137.406 44.0859C139.133 44.0859 140.527 44.6836 141.59 45.8789C142.66 47.0742 143.195 48.6641 143.195 50.6484V50.8008C143.195 52.0352 142.957 53.1445 142.48 54.1289C142.012 55.1055 141.336 55.8672 140.453 56.4141C139.578 56.9609 138.57 57.2344 137.43 57.2344C135.711 57.2344 134.316 56.6367 133.246 55.4414C132.184 54.2461 131.652 52.6641 131.652 50.6953V50.543ZM133.832 50.8008C133.832 52.207 134.156 53.3359 134.805 54.1875C135.461 55.0391 136.336 55.4648 137.43 55.4648C138.531 55.4648 139.406 55.0352 140.055 54.1758C140.703 53.3086 141.027 52.0977 141.027 50.543C141.027 49.1523 140.695 48.0273 140.031 47.168C139.375 46.3008 138.5 45.8672 137.406 45.8672C136.336 45.8672 135.473 46.293 134.816 47.1445C134.16 47.9961 133.832 49.2148 133.832 50.8008Z" fill="#737373"/>
</svg>
