<svg width="242" height="100" viewBox="0 0 242 100" fill="none" xmlns="http://www.w3.org/2000/svg">
<path d="M2.43387 8.51795C-0.691886 5.36103 1.54433 0 5.9869 0H192.397C193.743 0 195.032 0.542345 195.972 1.50446L240.539 47.0855C242.456 49.046 242.437 52.1846 240.495 54.121L195.965 98.54C195.028 99.4749 193.758 100 192.434 100H6.20096C1.72823 100 -0.494249 94.5767 2.6922 91.4379L40.554 54.1428C42.5249 52.2015 42.5447 49.0287 40.5983 47.0628L2.43387 8.51795Z" fill="#006EAC"/>
<path d="M73.0859 36.3945C71.1562 35.8398 69.75 35.1602 68.8672 34.3555C67.9922 33.543 67.5547 32.543 67.5547 31.3555C67.5547 30.0117 68.0898 28.9023 69.1602 28.0273C70.2383 27.1445 71.6367 26.7031 73.3555 26.7031C74.5273 26.7031 75.5703 26.9297 76.4844 27.3828C77.4062 27.8359 78.1172 28.4609 78.6172 29.2578C79.125 30.0547 79.3789 30.9258 79.3789 31.8711H77.1172C77.1172 30.8398 76.7891 30.0312 76.1328 29.4453C75.4766 28.8516 74.5508 28.5547 73.3555 28.5547C72.2461 28.5547 71.3789 28.8008 70.7539 29.293C70.1367 29.7773 69.8281 30.4531 69.8281 31.3203C69.8281 32.0156 70.1211 32.6055 70.707 33.0898C71.3008 33.5664 72.3047 34.0039 73.7188 34.4023C75.1406 34.8008 76.25 35.2422 77.0469 35.7266C77.8516 36.2031 78.4453 36.7617 78.8281 37.4023C79.2188 38.043 79.4141 38.7969 79.4141 39.6641C79.4141 41.0469 78.875 42.1562 77.7969 42.9922C76.7188 43.8203 75.2773 44.2344 73.4727 44.2344C72.3008 44.2344 71.207 44.0117 70.1914 43.5664C69.1758 43.1133 68.3906 42.4961 67.8359 41.7148C67.2891 40.9336 67.0156 40.0469 67.0156 39.0547H69.2773C69.2773 40.0859 69.6562 40.9023 70.4141 41.5039C71.1797 42.0977 72.1992 42.3945 73.4727 42.3945C74.6602 42.3945 75.5703 42.1523 76.2031 41.668C76.8359 41.1836 77.1523 40.5234 77.1523 39.6875C77.1523 38.8516 76.8594 38.207 76.2734 37.7539C75.6875 37.293 74.625 36.8398 73.0859 36.3945ZM89.7969 44C89.6719 43.75 89.5703 43.3047 89.4922 42.6641C88.4844 43.7109 87.2812 44.2344 85.8828 44.2344C84.6328 44.2344 83.6055 43.8828 82.8008 43.1797C82.0039 42.4688 81.6055 41.5703 81.6055 40.4844C81.6055 39.1641 82.1055 38.1406 83.1055 37.4141C84.1133 36.6797 85.5273 36.3125 87.3477 36.3125H89.457V35.3164C89.457 34.5586 89.2305 33.957 88.7773 33.5117C88.3242 33.0586 87.6562 32.832 86.7734 32.832C86 32.832 85.3516 33.0273 84.8281 33.418C84.3047 33.8086 84.043 34.2812 84.043 34.8359H81.8633C81.8633 34.2031 82.0859 33.5938 82.5312 33.0078C82.9844 32.4141 83.5938 31.9453 84.3594 31.6016C85.1328 31.2578 85.9805 31.0859 86.9023 31.0859C88.3633 31.0859 89.5078 31.4531 90.3359 32.1875C91.1641 32.9141 91.5938 33.918 91.625 35.1992V41.0352C91.625 42.1992 91.7734 43.125 92.0703 43.8125V44H89.7969ZM86.1992 42.3477C86.8789 42.3477 87.5234 42.1719 88.1328 41.8203C88.7422 41.4688 89.1836 41.0117 89.457 40.4492V37.8477H87.7578C85.1016 37.8477 83.7734 38.625 83.7734 40.1797C83.7734 40.8594 84 41.3906 84.4531 41.7734C84.9062 42.1562 85.4883 42.3477 86.1992 42.3477ZM97.3789 44H95.2109V26H97.3789V44ZM108.688 44C108.562 43.75 108.461 43.3047 108.383 42.6641C107.375 43.7109 106.172 44.2344 104.773 44.2344C103.523 44.2344 102.496 43.8828 101.691 43.1797C100.895 42.4688 100.496 41.5703 100.496 40.4844C100.496 39.1641 100.996 38.1406 101.996 37.4141C103.004 36.6797 104.418 36.3125 106.238 36.3125H108.348V35.3164C108.348 34.5586 108.121 33.957 107.668 33.5117C107.215 33.0586 106.547 32.832 105.664 32.832C104.891 32.832 104.242 33.0273 103.719 33.418C103.195 33.8086 102.934 34.2812 102.934 34.8359H100.754C100.754 34.2031 100.977 33.5938 101.422 33.0078C101.875 32.4141 102.484 31.9453 103.25 31.6016C104.023 31.2578 104.871 31.0859 105.793 31.0859C107.254 31.0859 108.398 31.4531 109.227 32.1875C110.055 32.9141 110.484 33.918 110.516 35.1992V41.0352C110.516 42.1992 110.664 43.125 110.961 43.8125V44H108.688ZM105.09 42.3477C105.77 42.3477 106.414 42.1719 107.023 41.8203C107.633 41.4688 108.074 41.0117 108.348 40.4492V37.8477H106.648C103.992 37.8477 102.664 38.625 102.664 40.1797C102.664 40.8594 102.891 41.3906 103.344 41.7734C103.797 42.1562 104.379 42.3477 105.09 42.3477ZM120.043 33.2656C119.715 33.2109 119.359 33.1836 118.977 33.1836C117.555 33.1836 116.59 33.7891 116.082 35V44H113.914V31.3203H116.023L116.059 32.7852C116.77 31.6523 117.777 31.0859 119.082 31.0859C119.504 31.0859 119.824 31.1406 120.043 31.25V33.2656ZM126.406 40.8242L129.359 31.3203H131.68L126.582 45.957C125.793 48.0664 124.539 49.1211 122.82 49.1211L122.41 49.0859L121.602 48.9336V47.1758L122.188 47.2227C122.922 47.2227 123.492 47.0742 123.898 46.7773C124.312 46.4805 124.652 45.9375 124.918 45.1484L125.398 43.8594L120.875 31.3203H123.242L126.406 40.8242ZM139.918 44V26.9375H144.734C146.219 26.9375 147.531 27.2656 148.672 27.9219C149.812 28.5781 150.691 29.5117 151.309 30.7227C151.934 31.9336 152.25 33.3242 152.258 34.8945V35.9844C152.258 37.5938 151.945 39.0039 151.32 40.2148C150.703 41.4258 149.816 42.3555 148.66 43.0039C147.512 43.6523 146.172 43.9844 144.641 44H139.918ZM142.168 28.7891V42.1602H144.535C146.27 42.1602 147.617 41.6211 148.578 40.543C149.547 39.4648 150.031 37.9297 150.031 35.9375V34.9414C150.031 33.0039 149.574 31.5 148.66 30.4297C147.754 29.3516 146.465 28.8047 144.793 28.7891H142.168ZM163.156 44C163.031 43.75 162.93 43.3047 162.852 42.6641C161.844 43.7109 160.641 44.2344 159.242 44.2344C157.992 44.2344 156.965 43.8828 156.16 43.1797C155.363 42.4688 154.965 41.5703 154.965 40.4844C154.965 39.1641 155.465 38.1406 156.465 37.4141C157.473 36.6797 158.887 36.3125 160.707 36.3125H162.816V35.3164C162.816 34.5586 162.59 33.957 162.137 33.5117C161.684 33.0586 161.016 32.832 160.133 32.832C159.359 32.832 158.711 33.0273 158.188 33.418C157.664 33.8086 157.402 34.2812 157.402 34.8359H155.223C155.223 34.2031 155.445 33.5938 155.891 33.0078C156.344 32.4141 156.953 31.9453 157.719 31.6016C158.492 31.2578 159.34 31.0859 160.262 31.0859C161.723 31.0859 162.867 31.4531 163.695 32.1875C164.523 32.9141 164.953 33.918 164.984 35.1992V41.0352C164.984 42.1992 165.133 43.125 165.43 43.8125V44H163.156ZM159.559 42.3477C160.238 42.3477 160.883 42.1719 161.492 41.8203C162.102 41.4688 162.543 41.0117 162.816 40.4492V37.8477H161.117C158.461 37.8477 157.133 38.625 157.133 40.1797C157.133 40.8594 157.359 41.3906 157.812 41.7734C158.266 42.1562 158.848 42.3477 159.559 42.3477ZM172.344 40.8242L175.297 31.3203H177.617L172.52 45.957C171.73 48.0664 170.477 49.1211 168.758 49.1211L168.348 49.0859L167.539 48.9336V47.1758L168.125 47.2227C168.859 47.2227 169.43 47.0742 169.836 46.7773C170.25 46.4805 170.59 45.9375 170.855 45.1484L171.336 43.8594L166.812 31.3203H169.18L172.344 40.8242ZM96.7344 72V54.9375H102.312C104.164 54.9375 105.555 55.3203 106.484 56.0859C107.422 56.8516 107.891 57.9844 107.891 59.4844C107.891 60.2812 107.664 60.9883 107.211 61.6055C106.758 62.2148 106.141 62.6875 105.359 63.0234C106.281 63.2812 107.008 63.7734 107.539 64.5C108.078 65.2188 108.348 66.0781 108.348 67.0781C108.348 68.6094 107.852 69.8125 106.859 70.6875C105.867 71.5625 104.465 72 102.652 72H96.7344ZM98.9844 64.0195V70.1602H102.699C103.746 70.1602 104.57 69.8906 105.172 69.3516C105.781 68.8047 106.086 68.0547 106.086 67.1016C106.086 65.0469 104.969 64.0195 102.734 64.0195H98.9844ZM98.9844 62.2148H102.383C103.367 62.2148 104.152 61.9688 104.738 61.4766C105.332 60.9844 105.629 60.3164 105.629 59.4727C105.629 58.5352 105.355 57.8555 104.809 57.4336C104.262 57.0039 103.43 56.7891 102.312 56.7891H98.9844V62.2148ZM110.773 65.543C110.773 64.3008 111.016 63.1836 111.5 62.1914C111.992 61.1992 112.672 60.4336 113.539 59.8945C114.414 59.3555 115.41 59.0859 116.527 59.0859C118.254 59.0859 119.648 59.6836 120.711 60.8789C121.781 62.0742 122.316 63.6641 122.316 65.6484V65.8008C122.316 67.0352 122.078 68.1445 121.602 69.1289C121.133 70.1055 120.457 70.8672 119.574 71.4141C118.699 71.9609 117.691 72.2344 116.551 72.2344C114.832 72.2344 113.438 71.6367 112.367 70.4414C111.305 69.2461 110.773 67.6641 110.773 65.6953V65.543ZM112.953 65.8008C112.953 67.207 113.277 68.3359 113.926 69.1875C114.582 70.0391 115.457 70.4648 116.551 70.4648C117.652 70.4648 118.527 70.0352 119.176 69.1758C119.824 68.3086 120.148 67.0977 120.148 65.543C120.148 64.1523 119.816 63.0273 119.152 62.168C118.496 61.3008 117.621 60.8672 116.527 60.8672C115.457 60.8672 114.594 61.293 113.938 62.1445C113.281 62.9961 112.953 64.2148 112.953 65.8008ZM124.461 65.543C124.461 64.3008 124.703 63.1836 125.188 62.1914C125.68 61.1992 126.359 60.4336 127.227 59.8945C128.102 59.3555 129.098 59.0859 130.215 59.0859C131.941 59.0859 133.336 59.6836 134.398 60.8789C135.469 62.0742 136.004 63.6641 136.004 65.6484V65.8008C136.004 67.0352 135.766 68.1445 135.289 69.1289C134.82 70.1055 134.145 70.8672 133.262 71.4141C132.387 71.9609 131.379 72.2344 130.238 72.2344C128.52 72.2344 127.125 71.6367 126.055 70.4414C124.992 69.2461 124.461 67.6641 124.461 65.6953V65.543ZM126.641 65.8008C126.641 67.207 126.965 68.3359 127.613 69.1875C128.27 70.0391 129.145 70.4648 130.238 70.4648C131.34 70.4648 132.215 70.0352 132.863 69.1758C133.512 68.3086 133.836 67.0977 133.836 65.543C133.836 64.1523 133.504 63.0273 132.84 62.168C132.184 61.3008 131.309 60.8672 130.215 60.8672C129.145 60.8672 128.281 61.293 127.625 62.1445C126.969 62.9961 126.641 64.2148 126.641 65.8008ZM142.262 66.1289L140.902 67.5469V72H138.734V54H140.902V64.8867L142.062 63.4922L146.012 59.3203H148.648L143.715 64.6172L149.223 72H146.68L142.262 66.1289Z" fill="#FFFAFA"/>
</svg>
