<?xml version="1.0" encoding="iso-8859-1"?>
<!-- Generator: Adobe Illustrator 19.0.0, SVG Export Plug-In . SVG Version: 6.00 Build 0)  -->
<svg version="1.1" id="Capa_1" xmlns="http://www.w3.org/2000/svg" xmlns:xlink="http://www.w3.org/1999/xlink" x="0px" y="0px"
	 viewBox="0 0 512.001 512.001" style="enable-background:new 0 0 512.001 512.001;" xml:space="preserve">
<path style="fill:#FD6F71;" d="M229.227,229.227c-72.783,72.783-96.68,38.651-202.383,181.053
	c-7.822,10.538-5.33,25.47,5.506,32.873l1.88,1.285c4.222,2.884,9.278,4.219,14.386,3.988c9.993-0.451,31.311,3.08,65.421,30.3
	c49.614,39.591,106.383,6.878,131.871-18.611c27.927-22.792,66.192-75.977,31.801-129.326
	c-11.787-18.285-18.037-32.813-21.162-44.012c-5.119-18.348,11.879-35.344,30.227-30.227c11.2,3.125,25.729,9.375,44.012,21.162
	c53.35,34.392,106.534-3.874,129.326-31.801c25.49-25.49,58.202-82.258,18.611-131.871c-27.218-34.109-30.75-55.428-30.3-65.421
	c0.231-5.108-1.103-10.164-3.988-14.386l-1.285-1.88c-7.403-10.836-22.335-13.327-32.873-5.506
	C267.879,132.547,302.01,156.444,229.227,229.227z"/>
<path style="fill:#B3F0FF;" d="M84.873,391.728c19.42-24.715,58.212-69.513,116.51-96.092c7.874-3.59,17.164-1.796,23.156,4.447
	c21.474,22.372,63.299,78.563,4.227,138.584c-55.523,56.415-113.205,8.492-142.088-19.737
	C79.226,411.648,78.434,399.922,84.873,391.728z"/>
<path style="fill:#57D0E6;" d="M108.532,397.078c-7.453-7.284-8.245-19.009-1.806-27.203c5.408-6.884,12.325-15.328,20.742-24.5
	c-18.868,17.269-33.069,34.228-42.595,46.353c-6.439,8.194-5.647,19.919,1.806,27.203c28.882,28.228,86.565,76.152,142.088,19.736
	c3.79-3.851,7.159-7.686,10.15-11.498C187.147,466.587,135.389,423.326,108.532,397.078z"/>
<path style="fill:#B3F0FF;" d="M391.728,84.873c-24.715,19.42-69.513,58.212-96.092,116.51c-3.59,7.874-1.796,17.164,4.447,23.156
	c22.372,21.474,78.563,63.299,138.584,4.227c56.415-55.523,8.492-113.205-19.737-142.088
	C411.648,79.226,399.922,78.434,391.728,84.873z"/>
<path style="fill:#57D0E6;" d="M321.936,202.686c-6.243-5.993-8.036-15.283-4.447-23.156c13.54-29.698,31.807-54.322,49.739-73.914
	c-23.759,21.804-52.417,53.707-71.592,95.768c-3.59,7.874-1.796,17.164,4.447,23.156c22.372,21.474,78.563,63.299,138.584,4.227
	c3.957-3.894,7.382-7.798,10.355-11.703C393.429,260.695,342.874,222.782,321.936,202.686z"/>
<g>
	<path style="fill:#FADC60;" d="M46.86,406.813c0,0-18.376,60.38,3.828,98.963c2.229,3.873,6.347,6.262,10.816,6.224
		c6.393-0.055,16.658-1.713,29.478-9.24c6.483-3.807,7.921-12.554,3.156-18.369c-13.015-15.887-35.228-47.959-29.965-76.529
		L46.86,406.813z"/>
	<path style="fill:#FADC60;" d="M406.813,46.86c0,0,60.38-18.376,98.963,3.828c3.873,2.229,6.262,6.347,6.224,10.816
		c-0.055,6.393-1.713,16.658-9.24,29.478c-3.807,6.483-12.554,7.921-18.369,3.156c-15.887-13.015-47.959-35.228-76.529-29.965
		L406.813,46.86z"/>
</g>
<path style="fill:#F2C42C;" d="M39.963,465.753c5.013-2.049,9.775-4.711,14.196-7.952c8.644,6.338,18.595,10.458,29.174,12.107
	c-11.527-17.075-23.118-40.55-19.159-62.045l-17.313-1.049C46.86,406.813,38.17,435.368,39.963,465.753z"/>
<path style="fill:#7CB777;" d="M94.432,336.657c-10.841-0.143-21.723,3.918-29.996,12.189c-4.913,4.913-8.333,10.749-10.277,16.947
	c-1.944-6.2-5.364-12.035-10.277-16.947c-8.272-8.272-19.155-12.332-29.996-12.189c-7.609,0.1-13.783,6.274-13.883,13.883
	c-0.143,10.841,3.918,21.723,12.189,29.996c4.913,4.913,10.749,8.333,16.948,10.277c-6.2,1.943-12.035,5.364-16.948,10.277
	C3.92,409.362-0.14,420.244,0.004,431.085c0.1,7.609,6.274,13.783,13.883,13.883c10.841,0.143,21.723-3.918,29.996-12.189
	c4.913-4.913,8.333-10.749,10.277-16.947c1.944,6.199,5.364,12.035,10.277,16.947c8.272,8.272,19.155,12.332,29.996,12.189
	c7.609-0.1,13.783-6.274,13.883-13.883c0.143-10.841-3.918-21.723-12.189-29.996c-4.913-4.913-10.749-8.333-16.948-10.277
	c6.2-1.944,12.035-5.364,16.948-10.277c8.271-8.272,12.332-19.155,12.189-29.996C108.215,342.93,102.041,336.756,94.432,336.657z"/>
<path style="fill:#F2C42C;" d="M457.801,54.16c3.241-4.421,5.902-9.183,7.952-14.196c-30.384-1.794-58.939,6.897-58.939,6.897
	l1.049,17.313c21.495-3.959,44.969,7.633,62.045,19.159C468.259,72.755,464.137,62.805,457.801,54.16z"/>
<path style="fill:#7CB777;" d="M336.657,94.432c-0.143-10.841,3.918-21.723,12.189-29.996c4.913-4.913,10.749-8.333,16.947-10.277
	c-6.2-1.944-12.035-5.364-16.947-10.277c-8.272-8.272-12.332-19.155-12.189-29.996c0.1-7.609,6.274-13.783,13.883-13.883
	c10.841-0.143,21.723,3.918,29.996,12.189c4.913,4.913,8.333,10.749,10.277,16.948c1.943-6.2,5.364-12.035,10.277-16.948
	c8.272-8.272,19.155-12.332,29.996-12.189c7.609,0.1,13.783,6.274,13.883,13.883c0.143,10.841-3.918,21.723-12.189,29.996
	c-4.913,4.913-10.749,8.333-16.947,10.277c6.199,1.944,12.035,5.364,16.947,10.277c8.272,8.272,12.332,19.155,12.189,29.996
	c-0.1,7.609-6.274,13.783-13.883,13.883c-10.841,0.143-21.723-3.918-29.996-12.189c-4.913-4.913-8.333-10.749-10.277-16.948
	c-1.944,6.2-5.364,12.035-10.277,16.948c-8.272,8.271-19.155,12.332-29.996,12.189C342.93,108.215,336.756,102.041,336.657,94.432z"
	/>
<g>
</g>
<g>
</g>
<g>
</g>
<g>
</g>
<g>
</g>
<g>
</g>
<g>
</g>
<g>
</g>
<g>
</g>
<g>
</g>
<g>
</g>
<g>
</g>
<g>
</g>
<g>
</g>
<g>
</g>
</svg>
