<?xml version="1.0" encoding="iso-8859-1"?>
<!-- Generator: Adobe Illustrator 19.0.0, SVG Export Plug-In . SVG Version: 6.00 Build 0)  -->
<svg version="1.1" id="Capa_1" xmlns="http://www.w3.org/2000/svg" xmlns:xlink="http://www.w3.org/1999/xlink" x="0px" y="0px"
	 viewBox="0 0 512 512" style="enable-background:new 0 0 512 512;" xml:space="preserve">
<path style="fill:#6D5248;" d="M495.449,479.776c-3.204-88.29-18.129-388.302-73.865-427.317
	c-36.533-25.573-61.24-38.913-75.943-45.709c-22.452-10.378-38.155-5.324-79.855-6.66H196.98c-10.638,0-21.159,2.276-30.811,6.748
	c-14.725,6.823-39.377,20.158-75.753,45.621C34.68,91.474,19.755,391.486,16.551,479.776c-0.088,5.188,0.664,24.506,16.641,26.052
	c20.441,1.978,44.396,4.296,44.553,4.311c11.225,0.863,19.99-4.286,21.436-15.793c1.307-10.401,28.94-230.306,30.513-242.825
	v239.238c0.141,4.35,2.229,21.241,26.185,21.241c6.487,0,194.176,0,200.245,0c23.956,0,26.044-16.891,26.185-21.241V251.521
	c1.62,12.89,29.18,232.217,30.513,242.825c1.317,10.478,8.625,17.048,23.611,15.583c12.302-1.191,30.29-2.931,42.378-4.101
	C494.785,504.283,495.537,484.964,495.449,479.776z"/>
<g>
	<path style="fill:#5B423B;" d="M155.444,494.04V166.704c0-10.241-8.301-18.542-18.542-18.542h-1.204
		c-3.317,0-6.006,2.689-6.006,6.006v97.353v239.238c0.14,4.323,2.213,21.025,25.752,21.232H166.3
		C166.301,511.99,155.444,508.976,155.444,494.04z"/>
	<path style="fill:#5B423B;" d="M41.273,482.787c3.145-90.771,17.586-395.195,70.831-445.015
		c-6.709,4.382-13.93,9.257-21.688,14.687C34.68,91.474,19.755,391.486,16.551,479.776c-0.088,5.188,0.664,24.506,16.64,26.052
		c12.73,1.232-2.902-0.281,17.393,1.683C41.694,501.535,41.201,487.226,41.273,482.787z"/>
</g>
<rect x="129.69" y="206.43" style="fill:#FF822E;" width="252.61" height="88.07"/>
<rect x="129.69" y="206.43" style="fill:#F96E21;" width="25.752" height="88.07"/>
<path style="fill:#FF822E;" d="M41.361,193.686l88.332,13.992v43.846l-5.583,44.434l-94.097-14.905
	C33.11,251.368,36.851,221.575,41.361,193.686z"/>
<path style="fill:#F96E21;" d="M41.361,193.686c-2.28,14.103-4.334,28.515-6.175,42.793c-0.02,0.157-0.04,0.314-0.06,0.471
	c-0.925,7.188-1.807,14.429-2.648,21.695c-0.011,0.097-0.023,0.195-0.034,0.292c-0.851,7.358-1.661,14.741-2.43,22.116l23.732,3.759
	c2.809-29.472,6.187-59.255,10.239-87.542L41.361,193.686z"/>
<path style="fill:#A58A83;" d="M193.602,72.901c16.349,21.878,38.51,33.927,62.398,33.927s46.048-12.049,62.397-33.927
	c13.825-18.498,22.027-42.298,23.522-67.743c-15.695-6.206-28.428-4.894-30.69-5.069c-0.608,20.689-6.791,39.87-17.585,54.313
	c-21.472,28.731-53.868,28.664-75.289,0c-10.794-14.443-16.977-33.624-17.585-54.313c-2.069,0.16-15.098-1.054-30.689,5.081
	C171.578,30.611,179.78,54.406,193.602,72.901z"/>
<g>
	<path style="fill:#897067;" d="M202.85,18.444l-29.712,8.697c1.128,5.086,2.531,10.054,4.215,14.865l29.687-8.689
		C205.286,28.573,203.884,23.596,202.85,18.444z"/>
	<path style="fill:#897067;" d="M263.725,75.133c-5.124,1.057-10.325,1.058-15.451,0v31.262c2.552,0.282,5.128,0.433,7.725,0.433
		c2.598,0,5.174-0.151,7.726-0.433V75.133z"/>
	<path style="fill:#897067;" d="M228.016,64.795l-17.743,25.478c4.125,3.293,8.454,6.113,12.945,8.448l17.948-25.773
		C236.573,71.078,232.158,68.337,228.016,64.795z"/>
	<path style="fill:#897067;" d="M195.308,75.117l24.906-18.34c-3.305-4.052-6.069-8.349-8.485-12.94l-25.091,18.476
		c2.134,3.688,4.453,7.228,6.964,10.587C194.164,73.653,194.733,74.39,195.308,75.117z"/>
	<path style="fill:#897067;" d="M288.781,98.722c4.492-2.336,8.82-5.156,12.945-8.448l-17.742-25.478
		c-4.142,3.541-8.558,6.283-13.15,8.154L288.781,98.722z"/>
	<path style="fill:#897067;" d="M309.148,18.451c-1.034,5.152-2.436,10.129-4.192,14.873l29.688,8.689
		c1.685-4.811,3.088-9.779,4.216-14.865L309.148,18.451z"/>
	<path style="fill:#897067;" d="M300.27,43.838c-1.967,3.738-4.171,7.279-6.626,10.565c-0.609,0.815-1.23,1.604-1.859,2.375
		l24.906,18.34c0.575-0.728,1.145-1.465,1.706-2.216c2.511-3.36,4.831-6.9,6.964-10.587L300.27,43.838z"/>
</g>
<path style="fill:#6D5248;" d="M293.645,54.402c10.793-14.443,16.977-33.624,17.585-54.313c-23.266,0-84.829,0-110.458,0
	c0.607,20.689,6.791,39.87,17.585,54.313C239.827,83.133,272.222,83.067,293.645,54.402z"/>
<g>
	<path style="fill:#5B423B;" d="M227.231,0.09H200.77c0.607,20.689,6.791,39.87,17.585,54.313
		c14.057,18.81,34.826,27.258,55.12,17.371C249.08,62.072,228.491,35.109,227.231,0.09z"/>
	<path style="fill:#5B423B;" d="M440.47,494.04l-43.61-337.923c-0.587-4.548-4.46-7.954-9.046-7.954l0,0
		c-3.041,0-5.507,2.465-5.507,5.507v97.852c1.576,12.54,29.211,232.469,30.513,242.825c2.171,17.275,19.557,15.97,20.725,15.862
		c2.042-0.198-7.396,0.716,19.967-1.932C440.946,509.492,440.47,494.04,440.47,494.04z"/>
</g>
<path style="fill:#FF822E;" d="M470.64,193.686l-88.332,13.992v43.846l5.583,44.434l94.097-14.905
	C478.89,251.368,475.149,221.575,470.64,193.686z"/>
<polygon style="fill:#F96E21;" points="403.09,204.386 382.308,207.678 382.308,251.524 385.251,274.948 387.891,295.958 
	414.366,291.764 "/>
<g>
</g>
<g>
</g>
<g>
</g>
<g>
</g>
<g>
</g>
<g>
</g>
<g>
</g>
<g>
</g>
<g>
</g>
<g>
</g>
<g>
</g>
<g>
</g>
<g>
</g>
<g>
</g>
<g>
</g>
</svg>
